<svg data-name="Layer 1" xmlns="http://www.w3.org/2000/svg" width="526.98052" height="369.64512" viewBox="0 0 526.98052 369.64512" xmlns:xlink="http://www.w3.org/1999/xlink"><path d="M498.62338,417.68462a41.978,41.978,0,0,0-2.58038-7.69748l-.01478-.036-.004-.00882.01368.03253-.02162-.05084c-3.514-8.06813-9.41324-19.90471-19.939-17.83505-4.42717,1.15488-7.29252,5.086-9.13,9.05185-2.82168,5.47783-5.57918,10.98851-8.43063,16.4509-8.51577,15.89453-18.06179,31.21426-26.98406,46.8837-2.08213,2.51069-4.09654,5.12757-4.713,8.27359-1.08694,5.8787,5.745,10.34789,10.76663,7.30608.34474-.18317.27835-.17667.049-.09164,1.20958-.60313,2.42709-1.39044,1.986-1.30144,2.08412-1.016,3.78533-2.65339,5.69542-3.97876,6.38313-4.771,12.83949-9.44467,19.13616-14.33095,12.36219-10.17728,27.39806-19.48763,33.63517-34.88643C499.77341,419.16582,498.65294,419.82685,498.62338,417.68462Zm-27.11022,11.646.00243-.00375c1.98155-3.04367,3.85414-6.15716,5.72938-9.26667-.55318.56409-1.11319,1.12388-1.69261,1.66239-8.12118,8.02986-16.91067,15.39318-25.32211,23.13234,4.37688-4.99964,8.71251-10.03435,12.91955-15.17681,6.63568-8.3563,9.48074-12.69711,14.90773-20.78929.24041.50962.44554.9588.57831,1.24972a40.274,40.274,0,0,1,2.41033,8.17268c-.03573.14668-.07874.29214-.11557.43892-2.69464,4.43654-.61979,1.64023-5.2534,6.7163C474.30308,426.76911,472.90823,428.04993,471.51316,429.33063Z" transform="translate(-336.50974 -265.17744)" fill="#a0fff0"/><path d="M495.49887,408.70522c.17557.40342.345.81234.51744,1.21884l.00794.01831C495.843,409.50488,495.61092,408.951,495.49887,408.70522Z" transform="translate(-336.50974 -265.17744)" fill="#a0fff0"/><path d="M627.04784,387.04316c-6.39923-15.06-19.56494-29.58054-37.44344-25.46437-14.36535,3.91843-26.85812,29.70108-32.48868,42.71415,10.065-11.5923,21.41172-24.44227,32.12409-30.00215a17.96632,17.96632,0,0,1,1.77-.52814,16.01272,16.01272,0,0,1,2.7747-.0075c.15638.02868.3143.04831.4698.08084a22.71044,22.71044,0,0,1,3.64,1.127c3.32655,1.68048,2.97784,1.35526,4.49312,3.06508a24.97288,24.97288,0,0,0-3.3356.04433c-13.01263.24516-22.46072,10.9583-30.263,20.19961-1.735,2.03007.9074-.23457,1.82319-.62938,3.98471-2.34813,8.13309-4.40588,12.32557-6.35435,10.7256-5.97211,21.21123-2.0465,25.05082,1.36144,4.05662,2.85575,7.04041,8.01133,12.21,8.815C628.8053,402.093,630.75972,393.51033,627.04784,387.04316Z" transform="translate(-336.50974 -265.17744)" fill="#a0fff0"/><path d="M727.765,395.03013c-9.481-15.56236-33.04473-22.51168-32.72513,2.66,4.67376-14.4838,12.09266-13.01947,18.70716-4.53226,6.326,9.47511,8.81838,18.93919,11.0377,23.43937,4.43864,11.64678,8.94212,23.28,12.48968,35.23746,2.046,6.45085,3.86561,12.97415,5.30545,19.58733a101.39236,101.39236,0,0,0,1.44955-17.57755C744.02788,433.28083,739.4547,412.21308,727.765,395.03013Z" transform="translate(-336.50974 -265.17744)" fill="#a0fff0"/><path d="M552.54871,345.29221a22.68577,22.68577,0,0,0-16.901,9.04788c-5.865,6.62266-1.56159,13.91507,1.65975,20.6071a40.19156,40.19156,0,0,0-.50884-4.64883,6.10836,6.10836,0,0,0,.35643.563,4.05764,4.05764,0,0,0,1.98552,1.30375c-.9052,4.67961-.11558,8.989,5.3725,10.962,5.66079,1.549,10.385-3.01908,13.92335-6.85095,4.638-5.451,8.55569-11.96859,9.08372-19.25C568.17305,346.05106,557.99621,345.29717,552.54871,345.29221Zm-16.15435,19.5667a9.02151,9.02151,0,0,1,1.37522-4.52443,20.38193,20.38193,0,0,1,2.85675-2.57355l-.03441.04422A24.94012,24.94012,0,0,0,536.39436,364.85891Z" transform="translate(-336.50974 -265.17744)" fill="#a0fff0"/><path d="M863.17606,497.421c-.57876-31.62362-3.78952-63.09584-6.3174-94.60235-2.34306-26.82547-2.611-53.90459-7.05762-80.50476a64.87733,64.87733,0,0,0-16.15325-34.19409c-8.35277-7.45739-18.70871-12.6112-29.32182-16.0123-21.1358-5.55117-43.21384-5.75916-64.92928-6.48228-47.23385-1.98883-94.30492,3.26171-141.50392,3.76294-41.28016-.03662-82.469,2.45642-123.6713,4.59413-39.97464,1.7289-80.08161,3.03309-119.601,9.75512-2.7372.40849-5.48367.75907-8.21338,1.20969,6.5426.38709,13.0852.77407,19.63729.9643,30.49654.68066,60.90619,3.53146,91.41905,3.64924,24.978.3808,49.85857-2.17212,74.79292-3.17205,26.88459-1.17638,53.79939-1.1681,80.69258-2.00592,27.08177-1.018,54.10222-3.28288,81.18619-4.23318,22.46933-.58483,44.96358-.22917,67.42409.55042,24.11165,1.55873,38.52487,1.48726,57.43826,13.378,5.05974,3.17028,5.34118,4.00081,7.53536,6.57469a68.5856,68.5856,0,0,1,6.85006,11.55316c6.00443,17.64139,5.835,28.11809,7.761,46.11173q3.03651,38.4207,6.19587,76.83181c3.88127,48.96131,7.139,101.11341-1.75371,144.87558-3.24891,13.28966-4.78161,20.03573-11.77019,29.85989.221-.30306.1394-.17171-.10719.15119-.16278.228-.31321.44885-.48216.68022.1941-.27846.33636-.47917.44841-.63588a14.79443,14.79443,0,0,1-.991,1.16347c.16168-.13057.09308-.05845-.11116.116a4.11025,4.11025,0,0,1-.73492.61295c.09374-.08271.16851-.14778.24659-.21627a7.99223,7.99223,0,0,1-1.57527,1.00291c-3.63446,1.77543-1.08121,1.06125-5.81452,2.14775-7.02365.32125-31.23632-3.08173-44.36276-2.89866-23.69214-.02305-47.29252,2.391-70.95179,3.27759-39.48675,1.57229-79.04253.75609-118.48009,3.6736-68.67116,2.80812-137.206,11.10641-200.76779-7.40776-7.41339-1.577-21.33144-10.25183-25.102-12.99234a31.56609,31.56609,0,0,1-10.85573-13.375c-4.23087-13.43645-3.91546-20.08382-5.06681-33.99227-.74947-17.17093-.57346-34.37109-.82623-51.55448-.10587-32.96941.13278-65.94-.07874-98.90876-.534-39.99063-2.63949-79.952-5.7543-119.82058-5.55425,65.04188-6.3002,130.31128-5.815,195.54946.48877,33.20276-1.22965,66.69358,3.69048,99.6364,2.00449,15.75921,10.12567,27.35273,23.71111,35.454,23.34893,15.24916,51.97157,18.22115,79.03812,21.49907,67.58862,5.48687,135.24364-3.4021,202.844-4.435,26.121-.30548,52.2508-.42613,78.34091-1.88638,27.136-1.60714,54.404-3.96078,81.53006-.9964,7.836.5083,15.77675,2.33,23.57105.62861,15.56655-3.59707,21.94085-20.28883,25.98975-34.0924C863.28325,561.389,864.13022,529.13819,863.17606,497.421Z" transform="translate(-336.50974 -265.17744)"/><path d="M832.68392,611.24381c-.10057.0815-.29467.246-.59949.5127.19873-.15417.365-.29147.48833-.39668C832.60981,611.32222,832.64687,611.28252,832.68392,611.24381Z" transform="translate(-336.50974 -265.17744)"/><path d="M833.81586,609.88481c-.03794.05205-.08426.11623-.14094.19553l.03375-.04434C833.74484,609.98527,833.77991,609.93531,833.81586,609.88481Z" transform="translate(-336.50974 -265.17744)"/><path d="M775.91684,496.20033c-10.01913-2.73455-20.25552-4.48153-30.43258-6.49661-11.63344-2.30082-23.35732-4.86377-35.25632-4.90965-1.592-5.7864-3.41169-11.50861-5.35486-17.18648,4.108,2.70279,7.403,6.64847,10.674,10.259.77616.93553,1.457,1.83576,2.1891,2.89469a34.44536,34.44536,0,0,0-4.2302-8.67446c-1.93391-2.97619-10.42476-14.20346-13.49964-7.9991-.19829,3.02306,1.75061,5.77647,2.80844,8.51786a136.06,136.06,0,0,0,6.62487,12.1896c-.67448.00386-1.34721-.01831-2.023.00287-22.55976.26677-45.15526.05768-67.71568.67228-1.40168-8.80074-3.61483-21.31942-5.59549-28.97024.02382.01952.04676.04036.07058.05988,4.07911,3.741,8.141,7.74688,10.53283,12.81611.50641,1.00346.96739,2.0293,1.41381,3.05945a29.43368,29.43368,0,0,0-3.17524-10.33156c-1.61365-2.9945-11.85621-18.84006-15.00852-11.93959-.66566,2.79367,1.21178,6.14635,1.7107,8.97156a210.08321,210.08321,0,0,0,9.37486,26.35611c-13.39707.37485-26.7818,1.04107-40.13873,2.27943a109.5631,109.5631,0,0,0-2.29255-25.65792,93.48392,93.48392,0,0,0,1.29824,25.74945c-.712.06749-1.424.12572-2.13572.19652-9.56918,1.24255-19.17366,1.98244-28.79467,2.38331a63.04055,63.04055,0,0,0,.72146-23.83947,113.24677,113.24677,0,0,0-1.02033,23.84907c-11.283.46175-22.58843.45006-33.88706.20611a91.195,91.195,0,0,0,3.24406-12.38832c.54281,1.42826,1.057,2.78848,1.5166,4.0082-.3829-2.03956-.75874-4.08242-1.14076-6.12463a86.28873,86.28873,0,0,0,1.02563-18.52266c-1.07018,3.554-1.93038,6.952-2.64413,10.30609a139.15709,139.15709,0,0,0-3.50874-13.62007c-3.30317-9.691-7.347-19.115-10.69913-28.79257q-.55715-1.47873-1.10988-2.96207c10.97065-15.61816,22.21259-29.08108,35.38822-44.45684,7.67211-8.751,15.048-17.92063,23.564-25.87616.87255.92019,1.748,1.85781,2.63178,2.84175-.60237-1.168-1.24046-2.34107-1.89664-3.51249,2.14345-1.96886,4.33894-3.88215,6.65509-5.6653,9.03034-7.25194,12.87279-4.68159,28.43493,13.76442,3.63622,4.47051,14.28507,19.22792,21.41194,28.17467,8.48313,10.84879,13.697,16.63816,20.60821,26.44776,6.67736,9.50036,13.32319,19.03282,19.57155,28.82268,5.58183,9.00862,11.04322,18.1016,16.239,27.33829-.16917-.51767-.33658-1.03655-.5073-1.55432a344.01268,344.01268,0,0,0-30.16878-65.17444c7.368-12.98572,14.7595-23.72632,25.86359-33.93724,16.19185-12.60724,30.00469-18.36154,37.80384-3.44191,5.15768,8.48136,7.76717,19.453,14.3444,34.925,10.8789,25.89932,18.845,52.83177,27.93536,79.37459.34606.83925,1.0812,3.65067.73822,1.39011-1.40742-12.62378-3.42492-25.17-5.38706-37.71683-3.77518-24.22215-11.91422-47.46-20.28839-70.41141-4.614-12.728-13.1571-27.22194-28.34869-27.43258-11.73755-.46208-21.33077,7.58576-29.489,15.08671-11.10784,11.63389-18.23714,26.40806-23.57545,41.47238q-2.70864-4.47006-5.56947-8.84441c-11.914-16.76752-23.32777-34.00561-36.60839-49.73538-7.82209-9.00795-18.32294-19.08653-31.22507-14.45148a48.82034,48.82034,0,0,0-15.29238,11.11c-5.764-7.38052-13.05256-13.42905-22.36611-15.42152a34.876,34.876,0,0,0-22.41771,2.65813c-13.14564,5.978-18.12774,22.84649-11.84629,35.52288,4.50061,10.27487,14.76259,16.04451,23.80617,21.89453a345.07164,345.07164,0,0,0-20.1254,36.49921c-6.16587-16.52314-12.14008-33.17916-21.8116-43.8258-5.96825-6.6187-16.31845-13.18236-24.67321-6.80022-7.27046,6.033-12.50136,14.20666-18.11914,21.72614-22.779,31.80085-40.54633,66.80022-56.11663,102.59659-10.72185,1.96435-21.42584,4.04339-32.15718,5.91884,27.90492-.84773,55.70617-4.00875,83.64439-3.87553,33.36763.9406,66.642,4.36331,100.04842,4.1562,18.44292.46683,36.74535-1.75569,55.072-3.42415,19.572-1.27883,39.18722-1.83267,58.79848-2.008,18.14273.096,36.22438-1.34268,54.33028-2.03062,10.101.13995,20.15782,1.19568,30.22746,1.9059,9.83761.54556,19.67985,1.091,29.46077,2.32441,4.19778.50862,8.49835,1.1658,12.80729,2.106A123.19079,123.19079,0,0,0,775.91684,496.20033ZM523.04559,363.59839c-4.28557-12.45273-.13366-22.98214,11.22518-27.64013,12.31565-4.89333,23.52054-1.77268,35.35844,7.98663-3.201,3.5652-6.17271,7.352-9.07887,11-7.34655,9.95781-14.39513,20.16862-20.98713,30.66C532.86,378.0866,525.44886,370.70762,523.04559,363.59839Zm-2.36754,126.72346c-7.51242-.31232-15.03058-.69919-22.55138-1.04658,2.93218-10.53194,6.11052-21.26714,5.23091-32.23172-.55891-4.37644-1.53381-9.10148-4.51363-12.50655-2.24182-2.5892-6.63568-3.36394-8.65825-.119-2.4979,4.83543-2.24778,10.716-2.08412,16.0337.26689,5.293,1.50668,13.64069,2.08412,17.22971.94776,5.22958-.0311,7.025-4.69736,9.54117a22.57392,22.57392,0,0,1-2.338,1.049,22.43047,22.43047,0,0,0,2.9335-.51458c8.12338-1.76066,7.808-7.07526,7.97252-14.04179.154-6.53433.16675-13.81736.86814-19.2911,3.21252,10.53834,1.731,22.29331,1.78194,34.78652-7.97274-.36162-15.9479-.65717-23.922-.75014,3.86164-12.41116,7.98554-26.64373,2.46525-39.10484-1.81348-3.13742-6.40695-4.73375-9.42559-2.36622-3.3067,2.71008-2.913,7.65965-2.38872,11.49152,3.6424,13.93988,9.04314,12.31973,1.71048,27.724-.66566,1.334.32688-.161.73294-.57148,2.66993-3.42846,5.76511-6.9995,6.25344-11.48534.67228-3.91049-1.18774-7.554-2.18469-11.23654a22.11078,22.11078,0,0,1-1.00115-9.34983,5.97079,5.97079,0,0,1,.38511-1.41371l.039.01434a.55211.55211,0,0,0,.12043.08238,4.47821,4.47821,0,0,1,.61934.89086c3.54712,11.308,2.94784,21.31357,2.54553,35.32282-8.89712-.10124-17.79248.05294-26.68122.68695-15.825,1.29957-31.46438,3.8977-47.06423,6.75247,24.69857-39.41981,55.66933-84.37082,79.11178-112.58176a17.32811,17.32811,0,0,1,1.80775-1.83289c.12881-.08349.25056-.17756.38334-.25443.18153-.08712.32048-.15472.43319-.21008.11425-.03981.232-.06507.34805-.09981,5.33369,1.53855,11.04366,7.63109,15.60272,15.56523,8.22573,14.21735,14.40285,29.49143,21.97681,44.04912,3.69335,7.04747,7.858,13.86059,10.94219,21.21266.92042,2.09349,2.61876,6.4053,4.3599,10.92234a123.40136,123.40136,0,0,0-1.62733,17.98261Q526.46169,490.52223,520.67805,490.32185Z" transform="translate(-336.50974 -265.17744)"/><path d="M665.18054,463.49891q-.488-1.113-.965-2.23089c-3.03849-7.46941-7.21818-16.78484-11.49713-24.90866-8.527-16.27963-19.19152-34.934-37.98846-40.36515-6.08029-1.21873-11.91245,1.58211-17.42193,3.79183,5.38949-1.12653,12.70252-2.17046,16.0154-.6993a25.08655,25.08655,0,0,1,5.61711,3.34817,53.94868,53.94868,0,0,1,8.85985,8.84253c10.17992,14.0129,18.94162,29.0298,29.67648,42.65549C659.93839,457.20577,662.43761,460.456,665.18054,463.49891Z" transform="translate(-336.50974 -265.17744)"/><path d="M707.901,450.60528c-2.089-19.39235-11.93032-37.79855-29.34564-47.39839,5.53948,6.58208,9.48118,10.80357,13.44671,18.77675,4.79881,9.08284,9.72931,18.115,13.63815,27.62954.918,2.192,1.91362,4.3525,2.82521,6.54579C708.35843,454.30083,708.13831,452.45074,707.901,450.60528Z" transform="translate(-336.50974 -265.17744)"/><path d="M489.016,401.86817c-7.05188-4.09422-12.87367.02978-17.77351,5.20708-9.59146,10.30025-16.239,22.9356-22.777,35.29217a410.7791,410.7791,0,0,1-22.204,36.95533,173.0826,173.0826,0,0,0,29.02715-33.563c5.67424-8.672,9.93907-18.15708,14.76877-27.30432a81.14438,81.14438,0,0,1,7.13878-11.51886c1.98662-2.54564,3.81422-4.39783,6.89286-4.83676a14.06917,14.06917,0,0,1,6.367.85149C491.83088,403.50509,489.45188,402.137,489.016,401.86817Z" transform="translate(-336.50974 -265.17744)"/><path d="M613.18868,469.03728c-.41113-1.821-.86792-3.63126-1.41624-5.4165a79.21963,79.21963,0,0,0-15.8427-27.97263c-1.514-1.56557-3.1287-3.252-5.26487-3.90079a4.66045,4.66045,0,0,0-5.81363,3.443c-.71066,4.57836,3.21053,8.163,5.60674,11.62771,5.26907,6.9309,11.37009,13.18213,16.75076,20.01014,4.09919,6.13445,5.68372,11.73072,8.72839,18.63945C615.19846,479.98488,614.7269,474.36424,613.18868,469.03728Z" transform="translate(-336.50974 -265.17744)"/></svg>