<svg version="1.1" xmlns="http://www.w3.org/2000/svg" viewBox="0 0 64 42">
  <style>
    #wave { fill:#008bd1 }
    #letters { fill:#fff }
  </style>
  <g transform="translate(127.81606,-138.63951)">
    <g transform="matrix(0.06231174,0,0,0.06231174,-128.52968,137.02226)">
      <path id="wave" transform="translate(-0.92258,25.70508)" d="m 460,0.25 a 12.773659,12.23465 0 0 0 -4.8125,0.84375 L 454.5,1.3125 a 12.773659,12.23465 0 0 0 -3.75,2.28125 l -0.6875,0.46875 a 12.773659,12.23465 0 0 0 -1.84375,2 L 447.5625,6.90625 A 12.773659,12.23465 0 0 0 446.6875,8.25 L 446,9.375 a 12.773659,12.23465 0 0 0 -0.5,1 l -0.59375,1.40625 A 12.773659,12.23465 0 0 0 444.59375,12.5 l -0.65625,1.6875 a 12.773659,12.23465 0 0 0 -0.15625,0.59375 L 443.125,16.75 a 12.773659,12.23465 0 0 0 -0.15625,0.34375 L 442.375,19.375 a 12.773659,12.23465 0 0 0 -0.125,0.28125 l -0.59375,2.53125 a 12.773659,12.23465 0 0 0 -0.0937,0.21875 l -0.65625,2.78125 a 12.773659,12.23465 0 0 0 -0.0625,0.1875 l -0.5938,3.0625 a 12.773659,12.23465 0 0 0 -0.0937,0.125 l -0.5625,3.28125 a 12.773659,12.23465 0 0 0 -0.0937,0.1875 l -0.59375,3.5 a 12.773659,12.23465 0 0 0 -0.0625,0.125 l -0.59375,3.75 a 12.773659,12.23465 0 0 0 -0.0625,0.0625 l -0.59375,3.96875 A 12.773659,12.23465 0 0 0 437.5,43.53125 l -0.59375,4.15625 a 12.773659,12.23465 0 0 0 0,0.15625 l -0.65625,4.375 a 12.773659,12.23465 0 0 0 0,0.09375 l -0.65625,4.59375 a 12.773659,12.23465 0 0 0 0,0.0625 l -0.6875,4.8125 a 12.773659,12.23465 0 0 0 0,0.09375 L 434.25,66.8125 a 12.773659,12.23465 0 0 0 0,0.0625 l -0.59375,5.25 L 433,77.5 a 12.773659,12.23465 0 0 0 0,0.09375 l -0.65625,5.59375 -0.6875,5.71875 a 12.773659,12.23465 0 0 0 0,0.0625 l -0.59375,5.875 a 12.773659,12.23465 0 0 0 0,0.09375 l -0.65625,6.09375 L 429.75,107.25 a 12.773659,12.23465 0 0 0 0,0.0625 l -0.59375,6.375 -0.65625,6.53125 a 12.773659,12.23465 0 0 0 0,0.0625 l -0.6875,6.65625 -0.65625,6.8125 -0.59375,6.9375 a 12.773659,12.23465 0 0 0 0,0.0625 l -0.65625,7 -0.65625,7.21875 -0.59375,7.3125 -0.6875,7.34375 -0.65625,7.53125 -0.59375,7.5625 -0.65625,7.71875 -0.65625,7.71875 -0.6875,7.875 -0.3125,4.1875 h 25.625 l 0.1875,-2.28125 0.6875,-7.78125 v -0.0937 l 0.59375,-7.71875 0.65625,-7.625 0.65625,-7.59375 0.59375,-7.4375 0.65625,-7.34375 0.6875,-7.3125 0.59375,-7.15625 0.65625,-7 0.65625,-6.9375 0.59375,-6.8125 0.65625,-6.5625 v -0.0937 l 0.6875,-6.5 h -0.0937 l 0.6875,-6.3125 0.65625,-6.21875 0.59375,-6.03125 0.65625,-5.875 0.65625,-5.65625 v -0.09375 l 0.59375,-5.4375 v -0.0625 l 0.6875,-5.3125 V 74.8751 l 0.65625,-5.09375 h -0.0625 l 0.0625,-0.40625 0.28125,2.40625 h -0.0625 l 0.65625,5.5 v 0.09375 l 0.6875,5.71875 v 0.09375 l 0.59375,5.875 v 0.0625 l 0.65625,6.15625 0.65625,6.375 0.59375,6.53125 v 0.0625 l 0.65625,6.65625 v 0.0625 l 0.6875,6.875 h -0.0937 l 0.6875,7.0625 0.65625,7.25 v 0.0625 l 0.59375,7.375 0.65625,7.5 0.65625,7.71875 0.59375,7.78125 0.6875,7.9375 0.65625,8.0625 0.59375,8.15625 v 0.0625 l 0.65625,8.21875 v 0.0625 l 0.65625,8.375 0.59375,8.46875 0.125,1.375 c 7.27582,-2.88794 15.7867,-5.08417 24.9375,-5.21875 h 0.3125 l -0.53125,-6.40625 -0.59375,-8.4375 -0.65625,-8.28125 -0.65625,-8.21875 -0.59375,-8.0625 -0.65625,-8 -0.6875,-7.78125 a 12.773659,12.23465 0 0 0 0,-0.0937 l -0.59375,-7.625 a 12.773659,12.23465 0 0 0 -0.0625,-0.0937 l -0.59375,-7.5 a 12.773659,12.23465 0 0 0 0,-0.0625 l -0.65625,-7.375 a 12.773659,12.23465 0 0 0 0,-0.0625 l -0.65625,-7.21875 -0.59375,-7.15625 -0.6875,-6.9375 -0.65625,-6.8125 -0.59375,-6.5625 a 12.773659,12.23465 0 0 0 0,-0.09375 l -0.65625,-6.375 a 12.773659,12.23465 0 0 0 0,-0.0625 l -0.65625,-6.21875 -0.6875,-6.03125 a 12.773659,12.23465 0 0 0 0,-0.0625 L 486,74.75 a 12.773659,12.23465 0 0 0 0,-0.0625 l -0.65625,-5.59375 -0.65625,-5.40625 a 12.773659,12.23465 0 0 0 0,-0.0625 L 484,58.46875 a 12.773659,12.23465 0 0 0 0,-0.09375 l -0.5625,-4.9375 A 12.773659,12.23465 0 0 0 483.3438,53.375 L 482.75,48.6875 a 12.773659,12.23465 0 0 0 0,-0.0625 l -0.65625,-4.46875 a 12.773659,12.23465 0 0 0 0,-0.15625 l -0.65625,-4.15625 a 12.773659,12.23465 0 0 0 0,-0.15625 l -0.6875,-3.875 a 12.773659,12.23465 0 0 0 0,-0.15625 l -0.65625,-3.6875 a 12.773659,12.23465 0 0 0 0,-0.125 L 479.4375,28.375 a 12.773659,12.23465 0 0 0 0,-0.15625 L 478.75,25.03125 A 12.773659,12.23465 0 0 0 478.6875,24.8125 L 478.09375,22 a 12.773659,12.23465 0 0 0 -0.0625,-0.28125 l -0.65625,-2.5625 a 12.773659,12.23465 0 0 0 -0.0937,-0.34375 l -0.6563,-2.28125 a 12.773659,12.23465 0 0 0 -0.15625,-0.5 L 475.875,14.0625 A 12.773659,12.23465 0 0 0 475.65625,13.5 L 475,11.78125 A 12.773659,12.23465 0 0 0 474.625,11 l -0.59375,-1.40625 a 12.773659,12.23465 0 0 0 -0.65625,-1.125 l -0.6875,-1.0625 A 12.773659,12.23465 0 0 0 471.375,5.625 l -0.65625,-0.6875 a 12.773659,12.23465 0 0 0 -2.8125,-2.34375 l -0.6875,-0.375 a 12.773659,12.23465 0 0 0 -5.3125,-1.8125 L 461.25,0.3125 A 12.773659,12.23465 0 0 0 460,0.25 Z m 137.9375,38.84375 a 12.773659,12.23465 0 0 0 -1.75,0.1875 l -0.59375,0.0625 A 12.773659,12.23465 0 0 0 591,41.03125 l -0.65625,0.375 a 12.773659,12.23465 0 0 0 -2.59375,2.125 l -0.65625,0.625 a 12.773659,12.23465 0 0 0 -1.34375,1.6875 l -0.65625,0.9375 a 12.773659,12.23465 0 0 0 -0.6875,1.1875 L 583.75,49.1875 a 12.773659,12.23465 0 0 0 -0.375,0.84375 l -0.65625,1.5625 A 12.773659,12.23465 0 0 0 582.5,52.15625 L 581.84375,54 a 12.773659,12.23465 0 0 0 -0.15625,0.4375 l -0.59375,2.03125 a 12.773659,12.23465 0 0 0 -0.15625,0.375 l -0.65625,2.3125 a 12.773659,12.23465 0 0 0 -0.0625,0.28125 l -0.59375,2.625 a 12.773659,12.23465 0 0 0 -0.0937,0.21875 L 578.875,65.125 a 12.773659,12.23465 0 0 0 0,0.21875 l -0.65625,3.03125 a 12.773659,12.23465 0 0 0 -0.0937,0.15625 l -0.59375,3.3125 A 12.773659,12.23465 0 0 0 577.46875,72 l -0.59375,3.53125 a 12.773659,12.23465 0 0 0 -0.0625,0.0625 l -0.59375,3.75 A 12.773659,12.23465 0 0 0 576.125,79.5 l -0.59375,3.96875 a 12.773659,12.23465 0 0 0 0,0.125 l -0.65625,4.1875 a 12.773659,12.23465 0 0 0 0,0.0625 L 574.21875,92.25 a 12.773659,12.23465 0 0 0 0,0.0625 l -0.65625,4.65625 -0.6875,4.84375 a 12.773659,12.23465 0 0 0 0,0.0625 l -0.59375,5.03125 a 12.773659,12.23465 0 0 0 0,0.0625 L 571.625,112.125 a 12.773659,12.23465 0 0 0 0,0.0937 l -0.65625,5.375 -0.6875,5.59375 -0.5625,5.71875 a 12.773659,12.23465 0 0 0 0,0.0937 l -0.6875,5.875 -0.65625,6.09375 -0.65625,6.21875 -0.59375,6.375 a 12.773659,12.23465 0 0 0 0,0.0625 l -0.6875,6.46875 a 12.773659,12.23465 0 0 0 0,0.0625 l -0.65625,6.65625 -0.59375,6.71875 a 12.773659,12.23465 0 0 0 0,0.0625 l -0.65625,6.875 a 12.773659,12.23465 0 0 0 0,0.0625 l -0.65625,7.03125 -0.59375,7.15625 -0.6875,7.21875 a 12.773659,12.23465 0 0 0 0,0.0625 l -0.65625,7.28125 a 12.773659,12.23465 0 0 0 0,0.0937 l -0.25,2.71875 h 25.625 l 0.0625,-0.75 0.65625,-7.28125 v -0.0625 l 0.6875,-7.25 0.5625,-7.0625 0.6875,-7.03125 0.65625,-6.84375 v -0.0937 l 0.59375,-6.71875 0.65625,-6.59375 0.6875,-6.5 0.5625,-6.3125 0.6875,-6.15625 v -0.0625 l 0.65625,-5.96875 v -0.0625 l 0.59375,-5.8125 0.65625,-5.65625 v -0.0625 l 0.59375,-5.46875 v -0.0625 l 0.65625,-5.25 v -0.0625 l 0.6875,-5.09375 v -0.0625 l 0.59375,-4.90625 v -0.0625 l 0.4375,-3.125 0.59375,4.03125 h -0.0937 l 0.6875,4.625 v 0.0625 l 0.65625,4.8125 0.59375,4.96875 v 0.0625 l 0.65625,5.09375 0.6875,5.25 h -0.0937 l 0.65625,5.4375 0.6875,5.53125 v 0.0625 l 0.59375,5.6875 0.65625,5.78125 0.65625,5.96875 0.59375,6 v 0.0937 l 0.6875,6.09375 v 0.0625 l 0.65625,6.21875 0.59375,6.375 0.65625,6.4375 0.65625,6.59375 0.59375,6.65625 0.6875,6.65625 v 0.0625 l 0.15625,1.75 h 25.65625 l -0.40625,-4 L 635.5,201.375 634.90625,194.71875 634.25,188.125 633.59375,181.59375 633,175.25 l -0.6875,-6.3125 a 12.773659,12.23465 0 0 0 0,-0.0625 L 631.65625,162.6875 631,156.625 l -0.59375,-5.96875 a 12.773659,12.23465 0 0 0 0,-0.0625 l -0.65625,-5.8125 a 12.773659,12.23465 0 0 0 0,-0.0625 l -0.6875,-5.75 -0.59375,-5.59375 a 12.773659,12.23465 0 0 0 -0.0625,0 l -0.59375,-5.53125 -0.65625,-5.28125 a 12.773659,12.23465 0 0 0 0,-0.0937 l -0.6875,-5.15625 -0.5625,-5.03125 a 12.773659,12.23465 0 0 0 -0.0937,-0.0625 l -0.59375,-4.90625 -0.65625,-4.71875 a 12.773659,12.23465 0 0 0 0,-0.0937 l -0.65625,-4.53125 a 12.773659,12.23465 0 0 0 0,-0.0625 L 623.21875,93.5 a 12.773659,12.23465 0 0 0 0,-0.0625 L 622.625,89.25 a 12.773659,12.23465 0 0 0 -0.0625,-0.0625 l -0.59375,-4.03125 a 12.773659,12.23465 0 0 0 0,-0.0625 L 621.3125,81.25 a 12.773659,12.23465 0 0 0 0,-0.0625 L 620.65625,77.5 a 12.773659,12.23465 0 0 0 0,-0.125 l -0.6875,-3.40625 a 12.773659,12.23465 0 0 0 0,-0.15625 l -0.65625,-3.25 a 12.773659,12.23465 0 0 0 0,-0.125 l -0.65625,-3.0625 a 12.773659,12.23465 0 0 0 -0.0937,-0.125 l -0.59375,-2.84375 a 12.773659,12.23465 0 0 0 -0.0625,-0.21875 l -0.6563,-2.625 a 12.773659,12.23465 0 0 0 0,-0.28125 l -0.6875,-2.3125 A 12.773659,12.23465 0 0 0 616.5,58.6875 l -0.65625,-2.21875 A 12.773659,12.23465 0 0 0 615.6875,56.125 l -0.59375,-1.90625 a 12.773659,12.23465 0 0 0 -0.15625,-0.5 l -0.65625,-1.6875 A 12.773659,12.23465 0 0 0 614.0625,51.4375 l -0.65625,-1.46875 a 12.773659,12.23465 0 0 0 -0.375,-0.78125 L 612.375,47.96875 a 12.773659,12.23465 0 0 0 -0.6875,-1.0625 L 611.09375,45.9375 A 12.773659,12.23465 0 0 0 609.9375,44.5 L 609.25,43.8125 A 12.773659,12.23465 0 0 0 607.03125,41.875 L 606.4375,41.46875 A 12.773659,12.23465 0 0 0 602.375,39.625 l -0.65625,-0.15625 a 12.773659,12.23465 0 0 0 -3.78125,-0.375 z M 318.3125,141.8125 a 12.773659,12.23465 0 0 0 -1.625,0.0625 l -0.65625,0.0625 a 12.773659,12.23465 0 0 0 -2.59375,0.5 l -0.65625,0.21875 a 12.773659,12.23465 0 0 0 -2.0625,0.84375 l -0.6875,0.375 a 12.773659,12.23465 0 0 0 -1.625,0.96875 l -0.65625,0.4375 a 12.773659,12.23465 0 0 0 -1.1875,1 l -0.59375,0.5625 a 12.773659,12.23465 0 0 0 -0.875,0.78125 L 304.5,148.40625 a 12.773659,12.23465 0 0 0 -0.65625,0.6875 l -0.6875,0.875 a 12.773659,12.23465 0 0 0 -0.4375,0.625 l -0.59375,1 a 12.773659,12.23465 0 0 0 -0.375,0.5 l -0.65625,1.03125 a 12.773659,12.23465 0 0 0 -0.21875,0.5 l -0.65625,1.15625 A 12.773659,12.23465 0 0 0 300,155.1875 l -0.59375,1.28125 a 12.773659,12.23465 0 0 0 -0.21875,0.34375 l -0.59375,1.4375 a 12.773659,12.23465 0 0 0 -0.15625,0.28125 l -0.65625,1.5625 a 12.773659,12.23465 0 0 0 -0.0937,0.1875 l -0.65625,1.625 a 12.773659,12.23465 0 0 0 -0.0625,0.21875 l -0.6875,1.71875 a 12.773659,12.23465 0 0 0 -0.0625,0.1875 l -0.5938,1.84375 a 12.773659,12.23465 0 0 0 -0.0625,0.21875 L 294.875,168 a 12.773659,12.23465 0 0 0 0,0.15625 l -0.65625,1.96875 a 12.773659,12.23465 0 0 0 -0.0625,0.15625 l -0.59375,2.125 a 12.773659,12.23465 0 0 0 -0.0937,0.125 l -0.6563,2.21875 a 12.773659,12.23465 0 0 0 0,0.0625 l -0.65625,2.34375 a 12.773659,12.23465 0 0 0 0,0.0625 L 291.5,179.5625 a 12.773659,12.23465 0 0 0 0,0.125 l -0.6875,2.40625 a 12.773659,12.23465 0 0 0 0,0.15625 l -0.65625,2.46875 a 12.773659,12.23465 0 0 0 0,0.0625 l -0.65625,2.625 a 12.773659,12.23465 0 0 0 0,0.0937 l -0.6875,2.6875 a 12.773659,12.23465 0 0 0 0,0.0625 l -0.65625,2.6875 a 12.773659,12.23465 0 0 0 0,0.0625 l -0.65625,2.8438 a 12.773659,12.23465 0 0 0 0,0.0625 l -0.59375,2.90625 a 12.773659,12.23465 0 0 0 -0.0625,0 l -0.59375,2.96875 a 12.773659,12.23465 0 0 0 0,0.0937 l -0.6875,2.96875 a 12.773659,12.23465 0 0 0 0,0.0625 l -0.65625,3.03125 a 12.773659,12.23465 0 0 0 0,0.0937 l -0.65625,3.09375 -0.21875,1.09375 h 26.03125 l 0.5625,-2.5 h -0.0625 l 0.65625,-2.90625 v -0.0625 l 0.6875,-2.84375 v -0.0625 l 0.5625,-2.75 v -0.0937 l 0.6875,-2.75 h -0.0937 l 0.6875,-2.625 v -0.0625 l 0.65625,-2.5625 h -0.0625 l 0.65625,-2.46875 v -0.0625 l 0.59375,-2.34375 v -0.15625 l 0.59375,-2.1875 0.0625,-0.125 0.59375,-2.125 v -0.15625 l 0.375,-1.1875 0.4375,2.03125 v 0.0937 l 0.59375,2.875 v 0.0937 l 0.65625,3.03125 v 0.0625 l 0.59375,3.1875 v 0.15625 l 0.65625,3.3125 v 0.0937 l 0.59375,3.46875 v 0.0625 l 0.6875,3.6875 v 0.0625 l 0.59375,3.8125 0.65625,3.96875 v 0.0312 h 25.78125 l -0.5,-3.5625 a 12.773659,12.23465 0 0 0 -0.0625,-0.0625 l -0.59375,-4.03125 a 12.773659,12.23465 0 0 0 0,-0.0937 l -0.65625,-3.9375 -0.6875,-3.84375 a 12.773659,12.23465 0 0 0 0,-0.0625 L 345.3125,193 a 12.773659,12.23465 0 0 0 0,-0.0625 l -0.65625,-3.53125 a 12.773659,12.23465 0 0 0 0,-0.0937 l -0.6875,-3.375 a 12.773659,12.23465 0 0 0 0,-0.0937 l -0.59375,-3.25 a 12.773659,12.23465 0 0 0 -0.0625,-0.0625 l -0.59375,-3.125 a 12.773659,12.23465 0 0 0 -0.0625,-0.125 L 342.0625,176.375 A 12.773659,12.23465 0 0 0 342,176.21875 l -0.6875,-2.75 a 12.773659,12.23465 0 0 0 0,-0.15625 l -0.65625,-2.625 a 12.773659,12.23465 0 0 0 0,-0.125 L 340,168.09375 a 12.773659,12.23465 0 0 0 -0.0937,-0.21875 l -0.59375,-2.28125 A 12.773659,12.23465 0 0 0 339.25,165.3125 l -0.65625,-2.03125 a 12.773659,12.23465 0 0 0 -0.0937,-0.3125 l -0.65625,-1.90625 a 12.773659,12.23465 0 0 0 -0.0625,-0.34375 l -0.6875,-1.6875 a 12.773659,12.23465 0 0 0 -0.125,-0.4375 l -0.6875,-1.5625 a 12.773659,12.23465 0 0 0 -0.125,-0.40625 l -0.6875,-1.5 a 12.773659,12.23465 0 0 0 -0.2188,-0.4375 l -0.65625,-1.25 a 12.773659,12.23465 0 0 0 -0.3125,-0.65625 l -0.65625,-1.0625 a 12.773659,12.23465 0 0 0 -0.4375,-0.6875 l -0.59375,-1 a 12.773659,12.23465 0 0 0 -0.65625,-0.84375 l -0.59375,-0.78125 a 12.773659,12.23465 0 0 0 -0.90625,-0.9375 l -0.5625,-0.625 a 12.773659,12.23465 0 0 0 -1.1875,-1.0625 l -0.6875,-0.5 a 12.773659,12.23465 0 0 0 -1.6875,-1.125 l -0.59375,-0.375 A 12.773659,12.23465 0 0 0 323.5,142.8125 l -0.65625,-0.21875 a 12.773659,12.23465 0 0 0 -2.65625,-0.65625 l -0.59375,-0.0625 a 12.773659,12.23465 0 0 0 -1.28125,-0.0625 z m 418.78125,55.375 A 12.773659,12.23465 0 0 0 734.5,197.625 l -0.65625,0.125 a 12.773659,12.23465 0 0 0 -2.21875,0.78125 l -0.65625,0.28125 a 12.773659,12.23465 0 0 0 -1.875,1 L 728.5,200.21875 a 12.773659,12.23465 0 0 0 -1.375,1.0625 l -0.59375,0.59375 a 12.773659,12.23465 0 0 0 -1.0625,0.96875 l -0.5625,0.71875 a 12.773659,12.23465 0 0 0 -0.75,0.84375 L 723.5,205.25 a 12.773659,12.23465 0 0 0 -0.53125,0.71875 l -0.65625,1 a 12.773659,12.23465 0 0 0 -0.375,0.625 l -0.59375,1.125 a 12.773659,12.23465 0 0 0 -0.3125,0.59375 l -0.65625,1.25 a 12.773659,12.23465 0 0 0 -0.21875,0.5 L 719.5,212.46875 a 12.773659,12.23465 0 0 0 -0.15625,0.4375 l -0.65625,1.5625 a 12.773659,12.23465 0 0 0 -0.0937,0.34375 l -0.65625,1.78125 a 12.773659,12.23465 0 0 0 -0.0625,0.28125 l -0.0937,0.21875 c 6.86626,-2.8197 14.52311,-5 21.84375,-5 h 17.5 l -0.15625,-0.3125 a 12.773659,12.23465 0 0 0 -0.125,-0.375 l -0.6875,-1.25 a 12.773659,12.23465 0 0 0 -0.21875,-0.375 l -0.65625,-1.125 A 12.773659,12.23465 0 0 0 755.0625,208.25 l -0.65625,-1 a 12.773659,12.23465 0 0 0 -0.375,-0.5625 L 753.4375,205.75 A 12.773659,12.23465 0 0 0 753,205.1875 l -0.6875,-0.78125 a 12.773659,12.23465 0 0 0 -0.59375,-0.71875 L 751.0625,203 a 12.773659,12.23465 0 0 0 -0.75,-0.78125 l -0.65625,-0.5625 a 12.773659,12.23465 0 0 0 -1.09375,-0.9375 l -0.59375,-0.40625 a 12.773659,12.23465 0 0 0 -1.5,-0.9375 l -0.65625,-0.34375 A 12.773659,12.23465 0 0 0 743.96875,198.25 l -0.65625,-0.28125 a 12.773659,12.23465 0 0 0 -2.375,-0.5625 l -0.59375,-0.0625 A 12.773659,12.23465 0 0 0 737.6875,197.1875 Z M 172.9375,274 l -0.34375,0.0937 a 12.773659,12.23465 0 0 0 -0.65625,0.21875 l -0.65625,0.21875 a 12.773659,12.23465 0 0 0 -0.59375,0.1875 L 170,275 a 12.773659,12.23465 0 0 0 -0.59375,0.21875 l -0.5625,0.28125 a 12.773659,12.23465 0 0 0 -0.59375,0.28125 l -0.59375,0.375 a 12.773659,12.23465 0 0 0 -0.53125,0.1875 l -0.59375,0.375 A 12.773659,12.23465 0 0 0 166.09375,277 l -0.65625,0.34375 a 12.773659,12.23465 0 0 0 -0.375,0.28125 l -0.65625,0.4375 a 12.773659,12.23465 0 0 0 -0.375,0.21875 l -0.6875,0.5 a 12.773659,12.23465 0 0 0 -0.28125,0.1875 l -0.59375,0.5 a 12.773659,12.23465 0 0 0 -0.28125,0.21875 l -0.6875,0.5 a 12.773659,12.23465 0 0 0 -0.28125,0.28125 l -0.59375,0.5 a 12.773659,12.23465 0 0 0 -0.3125,0.21875 l -0.59375,0.5625 A 12.773659,12.23465 0 0 0 159.5,281.96875 l -0.65625,0.5625 a 12.773659,12.23465 0 0 0 -0.15625,0.1875 l -0.65625,0.65625 a 12.773659,12.23465 0 0 0 -0.21875,0.21875 l -0.59375,0.625 a 12.773659,12.23465 0 0 0 -0.15625,0.15625 l -0.65625,0.6875 a 12.773659,12.23465 0 0 0 -0.15625,0.15625 l -0.65625,0.6875 a 12.773659,12.23465 0 0 0 -0.0625,0.15625 l -0.6875,0.71875 a 12.773659,12.23465 0 0 0 -0.125,0.1875 l -0.6875,0.71875 a 12.773659,12.23465 0 0 0 -0.0625,0.15625 l -0.65625,0.78125 a 12.773659,12.23465 0 0 0 -0.0937,0.125 l -0.65625,0.78125 a 12.773659,12.23465 0 0 0 -0.0625,0.0625 l -0.6875,0.84375 a 12.773659,12.23465 0 0 0 -0.0625,0.15625 L 151.0938,291.375 A 12.773659,12.23465 0 0 0 151,291.5 l -0.59375,0.875 a 12.773659,12.23465 0 0 0 -0.0625,0.0625 l -0.65625,0.84375 a 12.773659,12.23465 0 0 0 -0.0937,0.0625 l -0.65625,0.9375 a 12.773659,12.23465 0 0 0 0,0.0625 l -0.65625,0.9375 a 12.773659,12.23465 0 0 0 -0.0937,0.0625 l -0.65625,0.90625 a 12.773659,12.23465 0 0 0 0,0.0937 L 146.875,297.25 a 12.773659,12.23465 0 0 0 -0.0937,0.0625 l -0.5625,1 a 12.773659,12.23465 0 0 0 -0.0937,0 l -0.59375,1 a 12.773659,12.23465 0 0 0 -0.0625,0.0625 l -0.65625,0.90625 a 12.773659,12.23465 0 0 0 0,0.0937 l -0.6875,0.96875 -0.65625,1 a 12.773659,12.23465 0 0 0 0,0.0625 l -0.65625,1 a 12.773659,12.23465 0 0 0 0,0.0625 l -0.6875,1 -0.65625,1.0625 -0.65625,1.0625 -0.65625,1.0625 -0.6875,1 a 12.773659,12.23465 0 0 0 0,0.0625 l -0.59375,1 -0.65625,1.0625 -0.65625,1.0625 -0.6875,1.0625 -0.5625,1.0625 -0.6875,0.96875 -0.65625,1.0625 -0.59375,1.0625 -0.65625,1 -0.59375,1 a 12.773659,12.23465 0 0 0 -0.0937,0.0625 l -0.59375,1 -0.65625,1 h 0.0937 l -0.6875,0.96875 -0.59375,1 -0.59375,0.9375 -0.0625,0.0625 -0.59385,0.9063 -0.59375,0.9375 -0.0625,0.0625 -0.53125,0.84375 -0.0625,0.0625 -0.59375,0.875 v 0.0625 l -0.59375,0.84375 v 0.0625 l -0.59375,0.78125 v 0.0937 l -0.59375,0.75 v 0.0937 l -0.59375,0.78125 v 0.0625 l -0.5,0.78125 -0.0937,0.0625 -0.5,0.71875 -0.0937,0.0625 -0.5,0.71875 -0.0937,0.0625 -0.5,0.625 -0.0625,0.15625 -0.46875,0.625 -0.0625,0.0937 -0.4375,0.5625 -0.15625,0.125 -0.4375,0.5625 -0.0625,0.15625 -0.46875,0.5 -0.125,0.125 -0.375,0.5 -0.15625,0.15625 -0.375,0.34375 -0.15625,0.21875 -0.34375,0.40625 -0.0937,0.0937 -0.375,0.40625 -0.125,0.15625 -0.375,0.34375 -0.15625,0.15625 -0.21875,0.1875 -0.21875,0.3125 -0.21875,0.125 -0.21875,0.21875 -0.21875,0.21875 -0.21875,0.1875 -0.15625,0.0937 -0.3125,0.28125 -0.28125,0.21875 -0.0625,0.0625 -0.3125,0.21875 -0.375,0.28125 -0.28125,0.125 -0.15625,0.15625 h -0.0625 l -0.0937,0.0625 h -0.0625 v 0.0625 h -0.0625 -0.0937 l -0.0625,0.0937 h -0.0937 -0.0625 l -0.15625,0.0625 -0.21875,0.0625 h -0.0625 -0.0625 -0.3125 -0.0625 -0.0937 -0.125 -0.0937 l -0.125,-0.0625 h -0.15625 -0.0937 l -0.21875,-0.0625 -0.28125,-0.0937 h -0.15625 l -0.0625,-0.0625 h -0.15625 l -0.21875,-0.0625 -0.3125,-0.15625 -0.28125,-0.125 h -0.0625 L 110.563,342.281 h -0.0625 l -0.21875,-0.125 h -0.15625 v -0.0937 l -0.4375,-0.125 -0.21875,-0.15625 -0.15625,-0.0625 -0.21875,-0.125 -0.21875,-0.15625 -0.15625,-0.0625 -0.28125,-0.15625 -0.25,-0.125 -0.21875,-0.15625 -0.21875,-0.125 -0.28125,-0.15625 -0.15625,-0.0625 -0.28125,-0.21875 -0.15625,-0.15625 -0.375,-0.1875 -0.15625,-0.0937 -0.34375,-0.28125 -0.15625,-0.0625 -0.375,-0.28125 -0.15625,-0.0625 -0.375,-0.28125 -0.0625,-0.0937 -0.4375,-0.34375 -0.15625,-0.0625 -0.4375,-0.28125 -0.0625,-0.0625 -0.46875,-0.375 -0.0625,-0.0625 -0.53125,-0.34375 -0.0625,-0.0937 -0.4375,-0.40625 -0.0937,-0.0937 -0.5,-0.34375 -0.0625,-0.0625 -0.53125,-0.4375 -0.0625,-0.0625 -0.53125,-0.4375 -0.59375,-0.46875 h -0.0625 l -0.53125,-0.5 -0.59375,-0.5 -0.0625,-0.0625 -0.5318,-0.4375 L 98,333.375 l -0.59375,-0.5 -0.59375,-0.5625 H 96.75 l -0.53125,-0.5 h -0.0625 l -0.59375,-0.5625 -0.65625,-0.5625 -0.59375,-0.59375 -0.6875,-0.5625 -0.65625,-0.5625 -0.65625,-0.5 a 12.773659,12.23465 0 0 0 0,-0.0625 l -0.65625,-0.5625 -0.59375,-0.5625 a 12.773659,12.23465 0 0 0 -0.09375,0 l -0.59375,-0.5625 a 12.773659,12.23465 0 0 0 -0.0625,0 l -0.65625,-0.5625 -0.6875,-0.59375 A 12.773659,12.23465 0 0 0 88.90625,325.5 L 88.3125,325 A 12.773659,12.23465 0 0 0 88.25,324.9375 l -0.59375,-0.5 A 12.773659,12.23465 0 0 0 87.5625,324.375 l -0.59375,-0.5 a 12.773659,12.23465 0 0 0 -0.125,-0.0625 l -0.59375,-0.5 A 12.773659,12.23465 0 0 0 86.15625,323.25 L 85.5,322.75 a 12.773659,12.23465 0 0 0 -0.0625,-0.0625 l -0.59375,-0.5 a 12.773659,12.23465 0 0 0 -0.0625,-0.0937 l -0.6875,-0.46875 a 12.773659,12.23465 0 0 0 -0.0625,-0.0937 l -0.65625,-0.5 a 12.773659,12.23465 0 0 0 -0.09375,-0.0625 l -0.65625,-0.5 a 12.773659,12.23465 0 0 0 -0.0625,-0.0625 l -0.6875,-0.5 a 12.773659,12.23465 0 0 0 -0.125,-0.0625 l -0.59375,-0.4375 A 12.773659,12.23465 0 0 0 81,319.34375 l -0.59375,-0.5 A 12.773659,12.23465 0 0 0 80.25,318.78125 l -0.65625,-0.5 a 12.773659,12.23465 0 0 0 -0.15625,-0.0625 l -0.59375,-0.4375 a 12.773659,12.23465 0 0 0 -0.21875,-0.0625 l -0.59375,-0.4375 a 12.773659,12.23465 0 0 0 -0.15625,-0.0625 l -0.65625,-0.4375 A 12.773659,12.23465 0 0 0 77,316.65625 L 76.40625,316.3125 A 12.773659,12.23465 0 0 0 76.1875,316.15625 L 75.53125,315.8125 A 12.773659,12.23465 0 0 0 75.375,315.71875 L 74.71875,315.375 A 12.773659,12.23465 0 0 0 74.5,315.25 l -0.6875,-0.375 A 12.773659,12.23465 0 0 0 73.59375,314.75 L 73,314.46875 a 12.773659,12.23465 0 0 0 -0.28125,-0.15625 l -0.65625,-0.28125 a 12.773659,12.23465 0 0 0 -0.25,-0.125 l -0.65625,-0.3125 a 12.773659,12.23465 0 0 0 -0.21875,-0.125 l -0.65625,-0.28125 a 12.773659,12.23465 0 0 0 -0.375,-0.0625 L 69.25,312.84375 a 12.773659,12.23465 0 0 0 -0.21875,-0.15625 l -0.6875,-0.21875 a 12.773659,12.23465 0 0 0 -0.375,-0.125 L 67.3125,312.125 a 12.773659,12.23465 0 0 0 -0.375,-0.0625 l -0.59375,-0.21875 A 12.773659,12.23465 0 0 0 66,311.78125 l -0.6875,-0.21875 a 12.773659,12.23465 0 0 0 -0.375,-0.0937 l -0.59375,-0.125 A 12.773659,12.23465 0 0 0 64,311.28125 L 63.3125,311.125 a 12.773659,12.23465 0 0 0 -0.28125,-0.0625 L 62.375,310.90625 a 12.773659,12.23465 0 0 0 -0.3125,0 l -0.65625,-0.125 a 12.773659,12.23465 0 0 0 -0.375,-0.0625 L 60.375,310.625 a 12.773659,12.23465 0 0 0 -0.3125,0 l -0.65625,-0.0625 A 12.773659,12.23465 0 0 0 59.03125,310.5 H 58.4375 a 12.773659,12.23465 0 0 0 -0.28125,-0.0937 h -0.6875 a 12.773659,12.23465 0 0 0 -0.28125,0 h -0.65625 a 12.773659,12.23465 0 0 0 -0.375,-0.0625 H 55.5625 a 12.773659,12.23465 0 0 0 -0.3125,0 l -0.65625,0.0625 a 12.773659,12.23465 0 0 0 -0.21875,0 h -0.65625 a 12.773659,12.23465 0 0 0 -0.3125,0 L 52.75,310.5 a 12.773659,12.23465 0 0 0 -0.28125,0 l -0.6875,0.0625 a 12.773659,12.23465 0 0 0 -0.125,0 l -0.6875,0.0625 a 12.773659,12.23465 0 0 0 -0.28125,0 l -0.59375,0.15625 a 12.773659,12.23465 0 0 0 -0.3125,0 l -0.65625,0.0625 a 12.773659,12.23465 0 0 0 -0.15625,0.0625 L 48.3125,311 a 12.773659,12.23465 0 0 0 -0.21875,0.0625 l -0.65625,0.0625 a 12.773659,12.23465 0 0 0 -0.21875,0.0625 l -0.59375,0.15625 a 12.773659,12.23465 0 0 0 -0.21875,0 l -0.6875,0.125 a 12.773659,12.23465 0 0 0 -0.125,0 l -0.6875,0.15625 A 12.773659,12.23465 0 0 0 44.75,311.6875 l -0.65625,0.15625 a 12.773659,12.23465 0 0 0 -0.15625,0.0625 l -0.65625,0.15625 A 12.773659,12.23465 0 0 0 43.125,312.125 l -0.65625,0.125 a 12.773659,12.23465 0 0 0 -0.15625,0.0937 l -0.59375,0.125 a 12.773659,12.23465 0 0 0 -0.125,0.0625 l -0.6875,0.15625 a 12.773659,12.23465 0 0 0 -0.125,0.0625 l -0.6875,0.21875 a 12.773659,12.23465 0 0 0 -0.0625,0 l -0.65625,0.2188 a 12.773659,12.23465 0 0 0 -0.09375,0 l -0.65625,0.21875 a 12.773659,12.23465 0 0 0 -0.15625,0.0625 L 37.875,313.6875 a 12.773659,12.23465 0 0 0 -0.0625,0 l -0.65625,0.21875 a 12.773659,12.23465 0 0 0 -0.09375,0 l -0.65625,0.28125 a 12.773659,12.23465 0 0 0 -0.0625,0 L 35.75,314.375 a 12.773659,12.23465 0 0 0 -0.09375,0 L 35,314.65625 a 12.773659,12.23465 0 0 0 -0.0625,0 l -0.59375,0.21875 a 12.773659,12.23465 0 0 0 -0.0625,0.0625 l -0.6875,0.21875 a 12.773659,12.23465 0 0 0 -0.0625,0 L 32.9375,315.375 a 12.773659,12.23465 0 0 0 -0.0625,0.0625 l -0.6875,0.21875 -0.65625,0.28125 -0.59375,0.21875 a 12.773659,12.23465 0 0 0 -0.0625,0 l -0.6875,0.28125 -0.59375,0.21875 h -0.0625 l -0.59375,0.28125 -0.65625,0.21875 -0.59375,0.28125 -0.59375,0.21875 h -0.0625 L 26.5,317.84375 h -0.0625 l -0.59375,0.21875 -0.59375,0.28125 v -0.0625 l -0.59375,0.28125 V 318.5 l -0.53125,0.21875 -0.0625,0.0625 -0.53125,0.125 h -0.0625 l -0.4375,0.21875 H 22.875 v 0.0625 l -0.5,0.15625 -0.46875,0.15625 -0.125,0.0625 -0.46875,0.125 H 21.25 l -0.4375,0.15625 -0.15625,0.0625 -0.375,0.0625 v 0.0937 h -0.0625 l -0.4375,0.0625 -0.15625,0.0625 -0.375,0.0625 v 0.0937 h -0.0625 l -0.375,0.0625 -0.15625,0.0625 -0.375,0.0937 -0.125,0.0625 -0.53125,0.0625 v 0.0625 h -0.28125 l -0.15625,0.0937 -0.4375,0.0625 -0.21875,0.0625 H 16.3125 v 0.0625 h -0.21875 l -0.25,0.0937 H 15.625 l -0.4375,0.0625 h -0.21875 l -0.15625,0.0625 h -0.21875 l -0.15625,0.0625 v -0.0625 L 14,321.31225 h -0.21875 -0.0625 l -0.3125,0.0937 H 13.34375 13.0625 12.96875 12.6875 12.375 l 0.3125,24.5 0.59375,-0.0625 a 12.773659,12.23465 0 0 0 0.34375,0 h 0.59375 a 12.773659,12.23465 0 0 0 0.3125,0 L 15.125,345.75 a 12.773659,12.23465 0 0 0 0.375,0 l 0.59375,-0.0625 a 12.773659,12.23465 0 0 0 0.21875,0 l 0.65625,-0.0625 a 12.773659,12.23465 0 0 0 0.21875,0 l 0.65625,-0.0937 a 12.773659,12.23465 0 0 0 0.3125,-0.0625 L 18.75,345.4063 a 12.773659,12.23465 0 0 0 0.21875,0 L 19.625,345.25 a 12.773659,12.23465 0 0 0 0.21875,0 L 20.5,345.125 a 12.773659,12.23465 0 0 0 0.15625,0 l 0.65625,-0.15625 a 12.773659,12.23465 0 0 0 0.25,0 l 0.65625,-0.125 a 12.773659,12.23465 0 0 0 0.21875,-0.0625 l 0.59375,-0.15625 a 12.773659,12.23465 0 0 0 0.15625,0 l 0.65625,-0.15625 a 12.773659,12.23465 0 0 0 0.21875,-0.0625 l 0.59375,-0.125 a 12.773659,12.23465 0 0 0 0.15625,-0.0937 l 0.65625,-0.125 A 12.773659,12.23465 0 0 0 25.625,344 l 0.65625,-0.15625 a 12.773659,12.23465 0 0 0 0.0625,-0.0625 l 0.6875,-0.15625 a 12.773659,12.23465 0 0 0 0.125,-0.0625 l 0.6875,-0.21875 a 12.773659,12.23465 0 0 0 0.0625,0 L 28.5625,343.125 a 12.773659,12.23465 0 0 0 0.15625,0 l 0.65625,-0.1875 a 12.773659,12.23465 0 0 0 0,-0.0937 l 0.6875,-0.125 a 12.773659,12.23465 0 0 0 0.125,-0.0625 l 0.6875,-0.21875 0.65625,-0.21875 a 12.773659,12.23465 0 0 0 0.15625,-0.0625 l 0.59375,-0.21875 a 12.773659,12.23465 0 0 0 0.0625,0 l 0.59375,-0.28125 a 12.773659,12.23465 0 0 0 0.0625,0 l 0.6875,-0.21875 A 12.773659,12.23465 0 0 0 33.75,341.375 l 0.65625,-0.21875 0.6875,-0.28125 0.65625,-0.21875 a 12.773659,12.23465 0 0 0 0.0625,0 l 0.59375,-0.28125 a 12.773659,12.23465 0 0 0 0.09375,0 L 37.15625,340.15625 37.75,339.875 38.40625,339.65625 39,339.375 a 12.773659,12.23465 0 0 0 0.0625,0 l 0.59375,-0.21875 H 39.75 l 0.59375,-0.28125 0.5625,-0.1875 0.6875,-0.21875 0.59375,-0.28125 v 0.0625 l 0.59375,-0.28125 0.5,-0.15625 0.09375,-0.0625 0.5,-0.125 0.0625,-0.0937 0.53125,-0.125 0.0625,-0.0625 0.53125,-0.15625 0.0625,-0.0625 0.46875,-0.15625 h 0.0625 l 0.5,-0.21875 H 46.25 l 0.4375,-0.125 0.15625,-0.0625 0.375,-0.0937 0.125,-0.0625 0.375,-0.125 H 47.875 l 0.375,-0.15625 h 0.125 l 0.375,-0.125 h 0.15625 l 0.53125,-0.15625 v -0.0625 l 0.28125,-0.0937 H 49.875 l 0.375,-0.0625 0.125,-0.0625 0.3125,-0.0625 h 0.125 l 0.3125,-0.0937 0.15625,-0.0625 0.5,-0.0625 L 52,335.21895 h 0.21875 l 0.15625,-0.0937 h 0.21875 l 0.3125,-0.0625 h 0.125 l 0.15625,-0.0625 H 53.5 l 0.125,-0.0625 v 0.0625 l 0.46875,-0.0625 h 0.125 0.15625 l 0.3125,-0.0937 H 54.75 55.03125 55.125 55.34375 55.5 h 0.21875 0.0625 0.28125 0.3125 0.0625 0.3125 l 0.28125,0.0937 h 0.09375 0.21875 l 0.21875,0.0625 h 0.0625 0.09375 l 0.21875,0.0625 h 0.28125 l 0.21875,0.0625 h 0.15625 l 0.21875,0.0937 0.21875,0.0625 0.0625,0.0625 h 0.25 l 0.0625,0.0625 0.28125,0.0937 0.3125,0.125 0.375,0.15625 0.28125,0.125 H 60.75 l 0.21875,0.15625 0.125,0.0625 0.15625,0.0625 0.15625,0.0937 0.15625,0.0625 0.21875,0.0625 0.125,0.15625 0.3125,0.125 0.15625,0.0625 0.21875,0.15625 0.28125,0.15625 0.15625,0.0625 0.28125,0.21875 0.15625,0.0625 0.3125,0.21875 0.125,0.0625 0.375,0.21875 0.15625,0.125 0.375,0.21875 0.0625,0.0625 0.375,0.21875 v 0.0625 l 0.59375,0.375 0.0625,0.0625 0.53125,0.4375 0.0625,-0.0937 0.375,0.375 0.0625,0.0625 0.53125,0.34375 0.0625,0.0625 0.4375,0.375 0.09375,0.0625 0.5,0.4375 v -0.0937 l 0.53125,0.4375 0.0625,0.0625 0.53125,0.4375 0.0625,0.0625 0.53125,0.34375 0.0625,0.0937 0.53125,0.40625 0.59375,0.5625 h 0.0625 l 0.53125,0.4375 0.0625,0.0625 0.5,0.5 h 0.09375 l 0.5,0.5 0.09375,0.0625 0.59375,0.5 0.65625,0.5625 0.59375,0.5 0.59375,0.5625 0.65625,0.5625 0.65625,0.59375 0.59375,0.5625 0.6875,0.5 L 79,349.875 a 12.773659,12.23465 0 0 0 0,0.0625 l 0.65625,0.5625 0.65625,0.5625 0.6875,0.5625 0.65625,0.5625 a 12.773659,12.23465 0 0 0 0.0625,0 l 0.59375,0.59375 a 12.773659,12.23465 0 0 0 0.09375,0 L 83,353.34375 a 12.773659,12.23465 0 0 0 0.0625,0.0625 l 0.65625,0.5 a 12.773659,12.23465 0 0 0 0,0.0625 l 0.6875,0.5 a 12.773659,12.23465 0 0 0 0.0625,0.0625 l 0.65625,0.5 a 12.773659,12.23465 0 0 0 0.09375,0.0625 l 0.59375,0.5 a 12.773659,12.23465 0 0 0 0.0625,0.0625 l 0.65625,0.5 A 12.773659,12.23465 0 0 0 86.625,356.25 l 0.65625,0.46875 a 12.773659,12.23465 0 0 0 0.0625,0.0937 l 0.6875,0.5 a 12.773659,12.23465 0 0 0 0.0625,0.0625 l 0.65625,0.5 a 12.773659,12.23465 0 0 0 0.09375,0.0625 l 0.65625,0.5 a 12.773659,12.23465 0 0 0 0.0625,0.0625 l 0.6875,0.4375 a 12.773659,12.23465 0 0 0 0.125,0.125 l 0.59375,0.4375 a 12.773659,12.23465 0 0 0 0.15625,0.0625 L 91.78125,360 a 12.773659,12.23465 0 0 0 0.15625,0.0625 l 0.59375,0.4375 a 12.773659,12.23465 0 0 0 0.21875,0.125 l 0.59375,0.4375 A 12.773659,12.23465 0 0 0 93.5,361.125 l 0.65625,0.34375 a 12.773659,12.23465 0 0 0 0.21875,0.21875 l 0.65625,0.34375 a 12.773659,12.23465 0 0 0 0.15625,0.0937 l 0.65625,0.34375 A 12.773659,12.23465 0 0 0 96,362.625 l 0.65625,0.34375 a 12.773659,12.23465 0 0 0 0.21875,0.125 l 0.6875,0.375 a 12.773659,12.23465 0 0 0 0.21875,0.0625 l 0.65625,0.34375 a 12.773659,12.23465 0 0 0 0.21875,0.0937 l 0.6875,0.34375 a 12.773659,12.23465 0 0 0 0.21875,0.0625 l 0.65625,0.28125 a 12.773659,12.23465 0 0 0 0.28125,0.1563 l 0.6875,0.28125 a 12.773659,12.23465 0 0 0 0.28125,0.125 l 0.65625,0.21875 a 12.773659,12.23465 0 0 0 0.3125,0.15625 l 0.65625,0.21875 a 12.773659,12.23465 0 0 0 0.375,0.0625 l 0.59375,0.21875 a 12.773659,12.23465 0 0 0 0.4375,0.125 l 0.59375,0.21875 a 12.773659,12.23465 0 0 0 0.4375,0.0625 l 0.6875,0.15625 a 12.773659,12.23465 0 0 0 0.34375,0.125 l 0.6875,0.15625 A 12.773659,12.23465 0 0 0 107.6875,367 l 0.65625,0.15625 a 12.773659,12.23465 0 0 0 0.375,0.0625 l 0.65625,0.0625 a 12.773659,12.23465 0 0 0 0.53125,0.0625 l 0.65625,0.0937 a 12.773659,12.23465 0 0 0 0.4375,0 l 0.6875,0.0625 a 12.773659,12.23465 0 0 0 0.5,0 l 0.6875,0.0625 a 12.773659,12.23465 0 0 0 0.5,0 h 0.65625 A 12.773659,12.23465 0 0 0 114.5625,367.5 h 0.65625 a 12.773659,12.23465 0 0 0 0.53125,-0.0625 h 0.65625 a 12.773659,12.23465 0 0 0 0.53125,-0.0937 l 0.65625,-0.0625 a 12.773659,12.23465 0 0 0 0.59375,-0.125 l 0.65625,-0.0937 a 12.773659,12.23465 0 0 0 0.53125,-0.125 l 0.65625,-0.15625 a 12.773659,12.23465 0 0 0 0.53125,-0.125 L 121.21875,366.5 a 12.773659,12.23465 0 0 0 0.59375,-0.21875 l 0.59375,-0.1875 a 12.773659,12.23465 0 0 0 0.4375,-0.15625 L 123.5,365.71875 A 12.773659,12.23465 0 0 0 124.09375,365.5 l 0.65625,-0.28125 a 12.773659,12.23465 0 0 0 0.46875,-0.1875 L 125.875,364.75 a 12.773659,12.23465 0 0 0 0.4375,-0.21875 l 0.65625,-0.375 a 12.773659,12.23465 0 0 0 0.46875,-0.1875 l 0.65625,-0.375 a 12.773659,12.23465 0 0 0 0.375,-0.28125 l 0.65625,-0.34375 a 12.773659,12.23465 0 0 0 0.375,-0.28125 l 0.65625,-0.4375 a 12.773659,12.23465 0 0 0 0.375,-0.21875 l 0.59375,-0.46875 a 12.773659,12.23465 0 0 0 0.375,-0.21875 l 0.59375,-0.5 A 12.773659,12.23465 0 0 0 132.375,360.625 l 0.65625,-0.5625 a 12.773659,12.23465 0 0 0 0.3125,-0.21875 l 0.59375,-0.5625 a 12.773659,12.23465 0 0 0 0.21875,-0.125 l 0.65625,-0.59375 a 12.773659,12.23465 0 0 0 0.21875,-0.1875 l 0.59375,-0.65625 A 12.773659,12.23465 0 0 0 135.9375,357.5 l 0.59375,-0.625 a 12.773659,12.23465 0 0 0 0.125,-0.15625 l 0.6875,-0.625 a 12.773659,12.23465 0 0 0 0.125,-0.21875 l 0.6875,-0.625 a 12.773659,12.23465 0 0 0 0.125,-0.15625 l 0.59375,-0.6875 a 12.773659,12.23465 0 0 0 0.21875,-0.21875 l 0.59375,-0.71875 a 12.773659,12.23465 0 0 0 0.15625,-0.125 L 140.5,352.625 a 12.773659,12.23465 0 0 0 0.0937,-0.125 l 0.65625,-0.78125 a 12.773659,12.23465 0 0 0 0.0625,-0.15625 L 142,350.78125 a 12.773659,12.23465 0 0 0 0.0625,-0.125 l 0.65625,-0.78125 a 12.773659,12.23465 0 0 0 0.0937,-0.15625 l 0.65625,-0.84375 a 12.773659,12.23465 0 0 0 0.0625,-0.0625 l 0.59375,-0.875 a 12.773659,12.23465 0 0 0 0.0937,-0.0625 l 0.65625,-0.84375 a 12.773659,12.23465 0 0 0 0.0625,-0.15625 l 0.59375,-0.90625 a 12.773659,12.23465 0 0 0 0.0937,-0.0625 l 0.65625,-0.84375 a 12.773659,12.23465 0 0 0 0.0625,-0.15625 L 146.9375,344 a 12.773659,12.23465 0 0 0 0.0937,0 l 0.65625,-0.9375 a 12.773659,12.23465 0 0 0 0,-0.0625 l 0.65625,-1 a 12.773659,12.23465 0 0 0 0.0937,-0.0625 L 149,341 a 12.773659,12.23465 0 0 0 0.0937,-0.0625 l 0.375,-0.625 z M 296,288.90625 c -14.07094,0.88198 -17.46875,9.84375 -17.46875,9.84375 h 15.78125 l 0.34375,-2 0.59375,-3.6875 0.65625,-3.6875 0.0937,-0.46875 z m 36.6875,0 0.1875,1.53125 0.59375,5.53125 0.34375,2.78125 h 14.84375 l -11.34375,31.59375 v 0.125 0.0625 l 0.6875,5.875 0.65625,5.875 0.59375,5.96875 0.65625,5.9375 0.65625,6.03125 0.6875,5.9375 0.59375,6 0.65625,6.03125 0.65625,6.03125 0.59375,6 0.6875,5.96875 0.65625,6 0.59375,5.96875 0.65625,5.9375 0.65625,5.9375 0.59375,5.875 0.6875,5.90625 0.65625,5.875 0.59375,5.78125 0.65625,5.75 0.65625,5.75 0.59375,5.65625 a 12.773659,12.23465 0 0 0 0.0937,0 l 0.59375,5.59375 0.65625,5.53125 a 12.773659,12.23465 0 0 0 0,0.0625 l 0.65625,5.4375 0.59375,5.46875 0.65625,5.3125 a 12.773659,12.23465 0 0 0 0,0.0625 l 0.6875,5.25 0.59375,5.21875 0.65625,5.125 0.65625,5.03125 a 12.773659,12.23465 0 0 0 0,0.0625 l 0.65625,4.875 a 12.773659,12.23465 0 0 0 0,0.0625 l 0.59375,4.8125 0.6875,4.75 a 12.773659,12.23465 0 0 0 0,0.0937 l 0.65625,4.59375 a 12.773659,12.23465 0 0 0 0,0.0625 l 0.65625,4.53125 0.59375,4.46875 0.6875,4.3125 a 12.773659,12.23465 0 0 0 0,0.0625 l 0.65625,4.1875 0.65625,4.125 a 12.773659,12.23465 0 0 0 0,0.0625 l 0.59375,3.875 a 12.773659,12.23465 0 0 0 0.0625,0.0937 l 0.59375,3.8125 a 12.773659,12.23465 0 0 0 0,0.0625 l 0.6875,3.6875 a 12.773659,12.23465 0 0 0 0,0.0625 l 0.65625,3.5625 a 12.773659,12.23465 0 0 0 0,0.0625 l 0.65625,3.40625 a 12.773659,12.23465 0 0 0 0,0.125 l 0.65625,3.28125 a 12.773659,12.23465 0 0 0 0,0.0625 l 0.6875,3.125 a 12.773659,12.23465 0 0 0 0,0.125 l 0.65625,2.90625 a 12.773659,12.23465 0 0 0 0,0.15625 l 0.6563,2.8126 a 12.773659,12.23465 0 0 0 0,0.15625 l 0.6875,2.625 a 12.773659,12.23465 0 0 0 0.0625,0.125 l 0.59375,2.46875 a 12.773659,12.23465 0 0 0 0.0625,0.21875 l 0.6875,2.34375 a 12.773659,12.23465 0 0 0 0.0625,0.21875 l 0.59375,2.125 a 12.773659,12.23465 0 0 0 0.15625,0.28125 l 0.59375,1.96875 a 12.773659,12.23465 0 0 0 0.125,0.28125 l 0.59375,1.78125 a 12.773659,12.23465 0 0 0 0.21875,0.4375 l 0.59375,1.625 a 12.773659,12.23465 0 0 0 0.21875,0.5 l 0.6875,1.34375 a 12.773659,12.23465 0 0 0 0.28125,0.625 l 0.65625,1.21875 a 12.773659,12.23465 0 0 0 0.46875,0.84375 l 0.65625,0.96875 a 12.773659,12.23465 0 0 0 0.75,1.0625 L 378.4375,605 a 12.773659,12.23465 0 0 0 1.1875,1.34375 l 0.65625,0.59375 a 12.773659,12.23465 0 0 0 2,1.53125 l 0.65625,0.4375 a 12.773659,12.23465 0 0 0 3.1875,1.40625 l 0.65625,0.21875 a 12.773659,12.23465 0 0 0 4.375,0.5 h 0.65625 a 12.773659,12.23465 0 0 0 4.15625,-0.90625 l 0.5625,-0.21875 a 12.773659,12.23465 0 0 0 3.03125,-1.71875 l 0.6875,-0.5 a 12.773659,12.23465 0 0 0 1.78125,-1.53125 l 0.65625,-0.71875 a 12.773659,12.23465 0 0 0 1.03125,-1.34375 l 0.65625,-0.9375 a 12.773659,12.23465 0 0 0 0.59375,-1.0625 l 0.6875,-1.1875 a 12.773659,12.23465 0 0 0 0.4375,-0.78125 l 0.59375,-1.40625 a 12.773659,12.23465 0 0 0 0.28125,-0.65625 l 0.65625,-1.625 a 12.773659,12.23465 0 0 0 0.15625,-0.5 l 0.65625,-1.90625 a 12.773659,12.23465 0 0 0 0.0937,-0.34375 l 0.6563,-2.1875 a 12.773659,12.23465 0 0 0 0.0625,-0.375 l 0.6875,-2.40625 A 12.773659,12.23465 0 0 0 410,588.5 l 0.65625,-2.6875 a 12.773659,12.23465 0 0 0 0,-0.21875 l 0.6875,-2.875 A 12.773659,12.23465 0 0 0 411.40625,582.5 L 412,579.3125 a 12.773659,12.23465 0 0 0 0.0625,-0.15625 l 0.59375,-3.40625 a 12.773659,12.23465 0 0 0 0.0937,-0.125 l 0.59375,-3.6875 a 12.773659,12.23465 0 0 0 0.0625,-0.0625 L 414,567.96875 a 12.773659,12.23465 0 0 0 0.0625,-0.0625 l 0.59375,-4.09375 a 12.773659,12.23465 0 0 0 0,-0.15625 l 0.65625,-4.25 a 12.773659,12.23465 0 0 0 0,-0.15625 L 416,554.8125 a 12.773659,12.23465 0 0 0 0,-0.0937 L 416.65625,550 a 12.773659,12.23465 0 0 0 0,-0.0937 l 0.65625,-4.9375 a 12.773659,12.23465 0 0 0 0,-0.0937 l 0.59375,-5.09375 a 12.773659,12.23465 0 0 0 0,-0.0625 l 0.6875,-5.3125 a 12.773659,12.23465 0 0 0 0,-0.0625 L 419.25,528.875 a 12.773659,12.23465 0 0 0 0,-0.0625 l 0.65625,-5.65625 a 12.773659,12.23465 0 0 0 0,-0.0625 l 0.59375,-5.8125 a 12.773659,12.23465 0 0 0 0,-0.0937 l 0.65625,-6 0.6875,-6.15625 a 12.773659,12.23465 0 0 0 0,-0.0937 l 0.59375,-6.28125 a 12.773659,12.23465 0 0 0 0.0625,0 l 0.59375,-6.53125 0.65625,-6.65625 0.65625,-6.71875 a 12.773659,12.23465 0 0 0 0,-0.0625 l 0.59375,-6.875 0.6875,-7 0.21875,-2.28125 h -4.1875 c 2e-5,0 -10.02942,-0.49927 -21,-5.40625 l -0.46875,5.5625 -0.65625,7 L 399,476.46885 v 0.0937 l -0.6875,6.71875 -0.65625,6.59375 -0.59375,6.4375 -0.65625,6.3125 -0.65625,6.09375 v 0.0625 l -0.59375,5.9375 -0.6875,5.8125 -0.65625,5.59375 v 0.0625 l -0.59375,5.375 v 0.0937 l -0.65625,5.21875 v 0.0937 l -0.59375,4.9375 v 0.0937 l -0.65625,4.8125 v 0.0625 l -0.6875,4.65625 h 0.0937 l -0.6875,4.40625 -0.4375,-2.28125 v -0.0625 l -0.59375,-3.6875 v -0.0625 l -0.65625,-3.8125 v -0.0937 l -0.59375,-3.875 v -0.0625 l -0.65625,-4.125 v -0.0625 l -0.6875,-4.1875 h 0.0937 l -0.6875,-4.375 -0.65625,-4.46875 v -0.0625 l -0.59375,-4.53125 v -0.0937 l -0.65625,-4.65625 -0.65625,-4.8125 -0.59375,-4.90625 -0.6875,-4.9375 v -0.0937 l -0.5625,-5 v -0.0937 l -0.6875,-5.09375 v -0.0625 l -0.65625,-5.1875 v -0.0625 l -0.59375,-5.25 v -0.0625 l -0.65625,-5.375 -0.6875,-5.4375 -0.5625,-5.53125 -0.6875,-5.59375 -0.65625,-5.59375 -0.59375,-5.75 -0.65625,-5.71875 -0.6875,-5.75 v -0.0625 l -0.59375,-5.8125 -0.65625,-5.875 -0.65625,-5.875 -0.59375,-5.875 -0.65625,-5.96875 -0.6875,-6 -0.59375,-5.96875 -0.65625,-6 -0.65625,-5.96875 -0.59375,-6 -0.65625,-6.03125 -0.6875,-6 L 366,357.71875 a 12.773659,12.23465 0 0 0 0,-0.0625 l -0.65625,-5.9375 -0.65625,-5.96875 -0.65625,-5.9375 -0.59375,-5.9375 -0.6875,-5.90625 -0.65625,-5.875 -0.59375,-5.875 -0.65625,-5.71875 a 12.773659,12.23465 0 0 0 0,-0.0937 l -0.65625,-5.71875 -0.59375,-5.65625 -0.6875,-5.6875 -0.53125,-4.4375 h -25.6875 z m 222.6875,0.40625 -0.46875,6.375 -0.25,3 H 580.25 l 0.0937,-1.21875 L 581,289.375 v -0.0625 z m 62.5,0 0.5625,5.875 0.65625,7.3125 0.59375,7.21875 v 0.0625 L 620.34375,317 621,324.3125 l 0.59375,7.28125 0.6875,7.21875 0.65625,7.21875 0.59375,7.21875 0.65625,7.15625 0.65625,7.15625 0.59375,7.09375 a 12.773659,12.23465 0 0 0 0.0937,0.0625 l 0.59375,7 0.375,3.96875 h 13.53125 l -10.6875,30.1875 0.0312,0.34375 0.59375,6.65625 0.65625,6.59375 0.65625,6.5 a 12.773659,12.23465 0 0 0 0,0.0937 l 0.59375,6.34375 0.6875,6.3125 a 12.773659,12.23465 0 0 0 0,0.0625 l 0.65625,6.1875 a 12.773659,12.23465 0 0 0 0,0.0625 l 0.65625,6.09375 0.59375,6 0.65625,5.875 a 12.773659,12.23465 0 0 0 0,0.0937 l 0.6875,5.71875 0.59375,5.6875 0.65625,5.5 0.65625,5.375 0.65625,5.25 0.59375,5.09375 a 12.773659,12.23465 0 0 0 0,0.0937 l 0.6875,4.875 a 12.773659,12.23465 0 0 0 0,0.0625 l 0.65625,4.75 0.65625,4.59375 a 12.773659,12.23465 0 0 0 0,0.0937 l 0.59375,4.375 a 12.773659,12.23465 0 0 0 0.0937,0.0625 l 0.5625,4.25 a 12.773659,12.23465 0 0 0 0,0.0937 l 0.6875,4.09375 a 12.773659,12.23465 0 0 0 0,0.0625 l 0.65625,3.90625 a 12.773659,12.23465 0 0 0 0,0.0625 l 0.65625,3.6875 a 12.773659,12.23465 0 0 0 0,0.15625 l 0.6875,3.46875 a 12.773659,12.23465 0 0 0 0,0.125 l 0.65625,3.25 a 12.773659,12.23465 0 0 0 0,0.15625 l 0.65625,3.125 a 12.773659,12.23465 0 0 0 0,0.125 l 0.65625,2.90625 a 12.773659,12.23465 0 0 0 0.0937,0.21875 l 0.59375,2.625 a 12.773659,12.23465 0 0 0 0.0625,0.28125 l 0.65625,2.40625 a 12.773659,12.23465 0 0 0 0.0937,0.28125 l 0.65625,2.25 a 12.773659,12.23465 0 0 0 0.0625,0.28125 l 0.6875,2 a 12.773659,12.23465 0 0 0 0.0625,0.4375 l 0.65625,1.75 a 12.773659,12.23465 0 0 0 0.25,0.5 l 0.5625,1.5625 a 12.773659,12.23465 0 0 0 0.3125,0.5625 l 0.65625,1.34375 a 12.773659,12.23465 0 0 0 0.375,0.78125 L 653.25,572.5 a 12.773659,12.23465 0 0 0 0.59375,0.84375 l 0.65625,1 a 12.773659,12.23465 0 0 0 0.90625,1.125 l 0.5625,0.71875 a 12.773659,12.23465 0 0 0 1.40625,1.34375 l 0.59375,0.5625 a 12.773659,12.23465 0 0 0 2.21875,1.5 l 0.59375,0.34375 a 12.773659,12.23465 0 0 0 3.1875,1.21875 l 0.59375,0.125 a 12.773659,12.23465 0 0 0 3.84375,0.375 H 669 a 12.773659,12.23465 0 0 0 3.625,-0.71875 l 0.59375,-0.21875 a 12.773659,12.23465 0 0 0 2.71875,-1.28125 l 0.6875,-0.40625 a 12.773659,12.23465 0 0 0 1.75,-1.28125 l 0.59375,-0.5625 a 12.773659,12.23465 0 0 0 1.1875,-1.21875 l 0.59375,-0.6875 a 12.773659,12.23465 0 0 0 0.8125,-1 l 0.65625,-0.9375 a 12.773659,12.23465 0 0 0 0.46875,-0.75 l 0.65625,-1.0625 a 12.773659,12.23465 0 0 0 0.375,-0.65625 l 0.59375,-1.28125 a 12.773659,12.23465 0 0 0 0.28125,-0.5 l 0.59375,-1.40625 a 12.773659,12.23465 0 0 0 0.21875,-0.40625 L 686,565.71875 a 12.773659,12.23465 0 0 0 0.15625,-0.375 l 0.65625,-1.6875 a 12.773659,12.23465 0 0 0 0.0625,-0.28125 l 0.6875,-1.90625 A 12.773659,12.23465 0 0 0 687.625,561.25 l 0.65625,-2 a 12.773659,12.23465 0 0 0 0.0937,-0.28125 l 0.65625,-2.125 a 12.773659,12.23465 0 0 0 0,-0.1875 l 0.65625,-2.28125 a 12.773659,12.23465 0 0 0 0.0937,-0.125 l 0.59375,-2.5 a 12.773659,12.23465 0 0 0 0.0625,-0.125 l 0.59375,-2.5625 A 12.773659,12.23465 0 0 0 691.09375,549 l 0.6875,-2.6875 a 12.773659,12.23465 0 0 0 0,-0.15625 l 0.65625,-2.8125 a 12.773659,12.23465 0 0 0 0,-0.0937 l 0.65625,-2.96875 a 12.773659,12.23465 0 0 0 0,-0.0625 l 0.65625,-3.0625 a 12.773659,12.23465 0 0 0 0,-0.0625 l 0.59375,-3.1875 a 12.773659,12.23465 0 0 0 0.0937,-0.0625 l 0.59375,-3.25 a 12.773659,12.23465 0 0 0 0,-0.0937 l 0.65625,-3.375 a 12.773659,12.23465 0 0 0 0,-0.0937 l 0.65625,-3.46875 a 12.773659,12.23465 0 0 0 0,-0.0625 l 0.6875,-3.59375 a 12.773659,12.23465 0 0 0 0,-0.0937 l 0.65625,-3.6875 0.59375,-3.8125 a 12.773659,12.23465 0 0 0 0.0625,0 l 0.59375,-3.90625 a 12.773659,12.23465 0 0 0 0,-0.0625 l 0.65625,-3.96875 0.6875,-4.03125 a 12.773659,12.23465 0 0 0 0,-0.0625 l 0.59375,-4.125 a 12.773659,12.23465 0 0 0 0.0625,0 l 0.59375,-4.25 0.65625,-4.25 a 12.773659,12.23465 0 0 0 0,-0.0625 l 0.65625,-4.3125 a 12.773659,12.23465 0 0 0 0,-0.0625 l 0.59375,-4.40625 0.6875,-4.46875 a 12.773659,12.23465 0 0 0 0,-0.0625 l 0.65625,-4.53125 0.65625,-4.59375 0.3125,-2.3125 -25.78125,0.0937 -0.46875,3.5625 -0.65625,4.53125 -0.6875,4.46875 -0.59375,4.3125 v 0.0625 l -0.65625,4.25 v 0.0625 l -0.65625,4.1875 v 0.0625 l -0.59375,4.125 v 0.0625 l -0.65625,4.03125 -0.6875,4.03125 h 0.0937 l -0.6875,3.90625 -0.65625,3.8125 -0.59375,3.6875 v 0.0937 l -0.65625,3.59375 v 0.0625 l -0.59375,3.46875 v 0.0937 l -0.65625,3.3125 v 0.0625 l -0.59375,3.28125 v 0.0625 l -0.6875,3.125 v 0.0625 l -0.59375,3.03125 -0.5,-2.96875 v -0.0625 l -0.65625,-3.90625 v -0.125 l -0.59375,-4.03125 v -0.0937 l -0.6875,-4.3125 v -0.0625 l -0.65625,-4.46875 h 0.0625 l -0.65625,-4.65625 v -0.0937 l -0.65625,-4.8125 -0.59375,-5.03125 -0.65625,-5.15625 -0.6875,-5.3125 h 0.0937 l -0.6875,-5.46875 -0.65625,-5.59375 -0.59375,-5.71875 -0.65625,-5.8125 v -0.0625 l -0.65625,-5.96875 -0.59375,-6.0625 -0.6875,-6.1875 -0.65625,-6.28125 -0.59375,-6.375 -0.65625,-6.53125 -0.65625,-6.5625 -0.59375,-6.6875 -0.6875,-6.71875 -0.65625,-6.78125 -0.59375,-6.875 -0.65625,-6.9375 -0.65625,-7.03125 -0.59375,-7 -0.6875,-7.15625 -0.65625,-7.0625 -0.59375,-7.15625 v -0.0937 l -0.65625,-7.125 -0.65625,-7.25 -0.59375,-7.28125 -0.6875,-7.21875 -0.65625,-7.3125 -0.59375,-7.28125 -0.65625,-7.21875 -0.6875,-7.28125 -0.28125,-3.84375 h -25.6875 z m 85.28125,0 -0.59375,3.75 -0.65625,4.40625 -0.59375,4.46875 -0.65625,4.4375 a 12.773659,12.23465 0 0 0 0,0.0937 l -0.6875,4.53125 -0.59375,4.59375 -0.65625,4.65625 -0.65625,4.75 -0.6875,4.75 -0.59375,4.75 a 12.773659,12.23465 0 0 0 0,0.0625 l -0.65625,4.8125 -0.65625,4.8125 a 12.773659,12.23465 0 0 0 0,0.0937 l -0.59375,4.875 -0.65625,4.875 -0.6875,4.96875 -0.59375,4.96875 -0.65625,4.9375 -0.65625,5.03125 -0.65625,4.96875 -0.59375,5.03125 -0.6875,5.03125 -0.65625,4.9375 v 0.0625 l -0.59375,4.96875 -0.65625,5.03125 -0.65625,4.96875 -0.59375,4.9375 -0.6875,4.96875 -0.65625,4.875 v 0.0625 l -0.59375,4.90625 -0.65625,4.8125 -0.65625,4.875 -0.59375,4.8125 -0.6875,4.75 -0.5,3.46875 40.8125,-115.4375 0.4375,-3.09375 0.65625,-4.75 0.59375,-4.6875 0.65625,-4.59375 0.6875,-4.59375 0.59375,-4.53125 0.65625,-4.46875 0.65625,-4.375 0.59375,-4.34375 0.65625,-4.25 0.46875,-2.96875 h -25.8125 z m 149.09375,0 -49.34375,140.15625 h 0.0625 a 12.773659,12.23465 0 0 0 1.6875,-0.0937 l 0.59375,-0.0625 a 12.773659,12.23465 0 0 0 1.625,-0.28125 l 0.6875,-0.125 a 12.773659,12.23465 0 0 0 1.3125,-0.4375 l 0.6875,-0.21875 a 12.773659,12.23465 0 0 0 1.25,-0.5 l 0.65625,-0.34375 A 12.773659,12.23465 0 0 0 812.5,426.84375 L 813.15625,426.5 a 12.773659,12.23465 0 0 0 0.75,-0.59375 L 814.5625,425.5 a 12.773659,12.23465 0 0 0 0.75,-0.5625 l 0.65625,-0.5625 a 12.773659,12.23465 0 0 0 0.59375,-0.5 l 0.59375,-0.5625 a 12.773659,12.23465 0 0 0 0.53125,-0.5 l 0.59375,-0.65625 a 12.773659,12.23465 0 0 0 0.4375,-0.40625 l 0.59375,-0.78125 a 12.773659,12.23465 0 0 0 0.375,-0.375 l 0.65625,-0.84375 a 12.773659,12.23465 0 0 0 0.21875,-0.34375 l 0.65625,-0.84375 a 12.773659,12.23465 0 0 0 0.21875,-0.28125 l 0.6875,-0.9375 a 12.773659,12.23465 0 0 0 0.125,-0.28125 l 0.6875,-1 a 12.773659,12.23465 0 0 0 0.21875,-0.28125 l 0.59375,-1.0625 a 12.773659,12.23465 0 0 0 0.125,-0.1875 l 0.6875,-1.15625 a 12.773659,12.23465 0 0 0 0.15625,-0.1875 l 0.5625,-1.15625 a 12.773659,12.23465 0 0 0 0.15625,-0.125 l 0.59375,-1.21875 a 12.773659,12.23465 0 0 0 0.15625,-0.21875 l 0.59375,-1.25 a 12.773659,12.23465 0 0 0 0.0625,-0.15625 L 827.5,407.78125 a 12.773659,12.23465 0 0 0 0.0937,-0.1875 l 0.65625,-1.375 a 12.773659,12.23465 0 0 0 0.0625,-0.125 l 0.5938,-1.34375 A 12.773659,12.23465 0 0 0 829,404.59375 l 0.65625,-1.40625 a 12.773659,12.23465 0 0 0 0.0625,-0.15625 l 0.59375,-1.46875 A 12.773659,12.23465 0 0 0 830.4062,401.5 L 831,400 a 12.773659,12.23465 0 0 0 0.0625,-0.125 l 0.65625,-1.5625 a 12.773659,12.23465 0 0 0 0,-0.0937 l 0.6875,-1.625 a 12.773659,12.23465 0 0 0 0,-0.0625 l 0.65625,-1.625 a 12.773659,12.23465 0 0 0 0,-0.0625 l 0.65625,-1.625 a 12.773659,12.23465 0 0 0 0,-0.0937 l 0.65625,-1.6875 a 12.773659,12.23465 0 0 0 0,-0.0625 l 0.6875,-1.71875 a 12.773659,12.23465 0 0 0 0,-0.0625 l 0.65625,-1.6875 a 12.773659,12.23465 0 0 0 0,-0.0937 l 0.65625,-1.75 a 12.773659,12.23465 0 0 0 0,-0.0937 l 0.6875,-1.75 a 12.773659,12.23465 0 0 0 0,-0.0937 l 0.65625,-1.75 a 12.773659,12.23465 0 0 0 0,-0.0625 l 0.65625,-1.84375 0.59375,-1.9375 a 12.773659,12.23465 0 0 0 0.0937,0 l 0.5625,-1.8125 a 12.773659,12.23465 0 0 0 0,-0.0937 l 0.6875,-1.84375 a 12.773659,12.23465 0 0 0 0,-0.0625 l 0.65625,-1.90625 0.65625,-1.90625 0.5938,-1.90655 a 12.773659,12.23465 0 0 0 0.0937,0 l 0.59375,-2 0.65625,-1.90625 0.65625,-2 0.59375,-1.90625 0.65625,-1.96875 0.6875,-1.90625 0.59375,-1.9375 0.65625,-1.90625 0.65625,-1.90625 V 351.5 l 0.59375,-1.84375 v -0.0625 l 0.65625,-1.84375 0.59375,-1.84375 v -0.0625 L 850.5937,344 l 0.65625,-1.84375 h -0.0625 l 0.65625,-1.78125 v -0.0625 l 0.65625,-1.78125 h -0.0625 l 0.65625,-1.78125 0.59375,-1.6875 0.0625,-0.0625 0.59375,-1.71875 0.59375,-1.625 v -0.0625 l 0.65625,-1.625 v -0.0625 l 0.59375,-1.5625 v -0.0625 l 0.59375,-1.5 0.0937,-0.0625 0.5,-1.5 0.0937,-0.0625 0.59375,-1.4375 v -0.0625 l 0.5,-1.34375 h 0.0625 l 0.53125,-1.40625 h 0.0625 L 859.81235,319.5 v -0.0937 l 0.53125,-1.1875 h 0.0625 l 0.53125,-1.28125 0.0625,-0.15625 0.53125,-0.96875 0.0625,-0.21875 0.53125,-1 0.0625,-0.125 0.4375,-0.9375 0.0937,-0.0625 v -0.0625 l 0.4375,-0.875 0.15625,-0.1875 0.34375,-0.71875 0.15625,-0.21875 0.375,-0.625 0.15625,-0.21875 0.34375,-0.5625 0.15625,-0.21875 0.3125,-0.5 0.125,-0.28125 0.3125,-0.34375 0.21875,-0.28125 0.15625,-0.28125 0.21875,-0.28125 0.21875,-0.28125 0.21875,-0.3125 0.15625,-0.125 0.28125,-0.34375 0.3125,-0.375 0.0625,-0.0625 0.21875,-0.21875 0.0625,-0.0625 0.15625,-0.15625 0.15625,-0.125 h 0.0625 l 0.0937,0.0625 0.21875,0.15625 0.28125,0.21875 0.375,0.1875 0.3125,0.21875 0.0625,0.0625 0.28125,0.21875 0.15625,0.15625 0.21875,0.125 0.21875,0.21875 0.15625,0.15625 0.21875,0.1875 0.21875,0.15625 0.3125,0.28125 0.125,0.125 0.3125,0.3125 0.15625,0.125 0.34375,0.34375 0.15625,0.15625 0.375,0.34375 0.15625,0.15625 0.375,0.40625 0.0625,0.15625 0.4375,0.4375 0.0625,0.0625 0.46875,0.5 0.0625,0.125 0.53125,0.4375 -0.0937,0.0625 0.59375,0.625 0.0937,0.0937 0.5,0.5625 v 0.0625 l 0.53125,0.65625 0.0625,0.0625 0.53125,0.625 0.0625,0.0625 0.5,0.65625 0.0937,0.0625 0.5,0.71875 v 0.0625 l 0.53125,0.71875 0.0625,0.0625 0.59375,0.71875 v 0.0625 l 0.59375,0.71875 V 318.5 l 0.59375,0.78125 0.59375,0.78125 v 0.0625 l 0.59375,0.78125 0.0625,0.0625 0.53125,0.78125 0.0625,0.0625 0.59375,0.84375 0.59375,0.875 0.0625,0.0625 0.59375,0.84375 0.59375,0.9375 0.6875,0.90625 0.59375,0.9375 0.65625,0.84375 v 0.0625 l 0.59375,0.90625 0.65625,0.9375 0.65625,0.90625 0.59375,1 0.6875,0.9375 0.65625,0.90625 a 12.773659,12.23465 0 0 0 0,0.0625 l 0.65625,0.9375 0.59375,0.90625 0.65625,0.9375 a 12.773659,12.23465 0 0 0 0,0.0625 l 0.6875,0.90625 a 12.773659,12.23465 0 0 0 0,0.0937 l 0.65625,0.90625 0.65625,0.9375 0.6875,0.90625 a 12.773659,12.23465 0 0 0 0,0.0625 l 0.65625,0.84375 a 12.773659,12.23465 0 0 0 0.0625,0.0937 l 0.59375,0.90625 a 12.773659,12.23465 0 0 0 0.0937,0 l 0.5625,0.9375 a 12.773659,12.23465 0 0 0 0.0937,0.0625 l 0.65625,0.84375 a 12.773659,12.23465 0 0 0 0,0.0625 l 0.65625,0.875 a 12.773659,12.23465 0 0 0 0.0937,0.0625 l 0.59375,0.84375 a 12.773659,12.23465 0 0 0 0.0625,0.0625 l 0.65625,0.84375 a 12.773659,12.23465 0 0 0 0,0.0937 l 0.6875,0.78125 a 12.773659,12.23465 0 0 0 0.0625,0.0625 l 0.65625,0.84375 a 12.773659,12.23465 0 0 0 0.0937,0.0625 l 0.59375,0.875 a 12.773659,12.23465 0 0 0 0.0625,0.0625 l 0.65625,0.78125 a 12.773659,12.23465 0 0 0 0.0937,0.0625 l 0.65625,0.78125 a 12.773659,12.23465 0 0 0 0.0625,0.0625 l 0.5943,0.7814 a 12.773659,12.23465 0 0 0 0.15625,0.15625 l 0.65625,0.6875 a 12.773659,12.23465 0 0 0 0.0937,0.0937 l 0.65625,0.78125 a 12.773659,12.23465 0 0 0 0.0625,0.0625 l 0.6875,0.6875 a 12.773659,12.23465 0 0 0 0.0625,0.15625 l 0.65625,0.625 a 12.773659,12.23465 0 0 0 0.15625,0.15625 l 0.65625,0.71875 a 12.773659,12.23465 0 0 0 0.15625,0.125 l 0.65625,0.65625 a 12.773659,12.23465 0 0 0 0.15625,0.125 l 0.59375,0.5625 a 12.773659,12.23465 0 0 0 0.15625,0.21875 l 0.65625,0.5625 a 12.773659,12.23465 0 0 0 0.21875,0.21875 l 0.65625,0.5625 a 12.773659,12.23465 0 0 0 0.1563,0.1563 l 0.65625,0.46875 a 12.773659,12.23465 0 0 0 0.21875,0.21875 l 0.6875,0.5625 a 12.773659,12.23465 0 0 0 0.21875,0.15625 l 0.65625,0.5 a 12.773659,12.23465 0 0 0 0.3125,0.21875 l 0.65625,0.46875 a 12.773659,12.23465 0 0 0 0.28125,0.21875 l 0.6875,0.4375 a 12.773659,12.23465 0 0 0 0.28125,0.125 L 916.75,363.25 a 12.773659,12.23465 0 0 0 0.4375,0.21875 l 0.59375,0.40625 a 12.773659,12.23465 0 0 0 0.4375,0.21875 l 0.59375,0.34375 a 12.773659,12.23465 0 0 0 0.4375,0.21875 l 0.6875,0.28125 a 12.773659,12.23465 0 0 0 0.375,0.21875 l 0.65625,0.28125 a 12.773659,12.23465 0 0 0 0.4375,0.15625 l 0.65625,0.28125 a 12.773659,12.23465 0 0 0 0.375,0.125 l 0.6875,0.28125 a 12.773659,12.23465 0 0 0 0.5,0.15625 l 0.65625,0.21875 a 12.773659,12.23465 0 0 0 0.375,0.125 l 0.65625,0.15625 a 12.773659,12.23465 0 0 0 0.53125,0.125 l 0.59375,0.15625 a 12.773659,12.23465 0 0 0 0.53125,0.125 L 927.625,367.5 a 12.773659,12.23465 0 0 0 0.4375,0.0625 l 0.65625,0.0625 a 12.773659,12.23465 0 0 0 0.46875,0.0937 l 0.65625,0.125 a 12.773659,12.23465 0 0 0 0.4375,0 l 0.65625,0.0937 A 12.773659,12.23465 0 0 0 931.46875,368 h 0.59375 a 12.773659,12.23465 0 0 0 0.5,0 h 0.59375 a 12.773659,12.23465 0 0 0 0.53125,0 h 0.59375 a 12.773659,12.23465 0 0 0 0.5,0 h 0.59375 a 12.773659,12.23465 0 0 0 0.4375,-0.0625 l 0.6875,-0.0937 a 12.773659,12.23465 0 0 0 0.375,0 l 0.65625,-0.0625 a 12.773659,12.23465 0 0 0 0.4375,-0.0625 l 0.59375,-0.0937 A 12.773659,12.23465 0 0 0 939,367.5625 l 0.59375,-0.125 a 12.773659,12.23465 0 0 0 0.375,-0.0937 l 0.65625,-0.125 A 12.773659,12.23465 0 0 0 941,367.15625 L 941.65625,367 a 12.773659,12.23465 0 0 0 0.3125,-0.0625 l 0.65625,-0.21875 a 12.773659,12.23465 0 0 0 0.375,-0.0625 l 0.59375,-0.21875 a 12.773659,12.23465 0 0 0 0.375,-0.0625 l 0.59375,-0.21875 A 12.773659,12.23465 0 0 0 944.84375,366 L 945.5,365.8125 a 12.773659,12.23465 0 0 0 0.21875,-0.0937 l 0.6875,-0.28125 a 12.773659,12.23465 0 0 0 0.28125,-0.0625 l 0.6875,-0.28125 a 12.773659,12.23465 0 0 0 0.21875,-0.0625 l 0.59375,-0.2813 a 12.773659,12.23465 0 0 0 0.28125,-0.0937 l 0.65625,-0.34375 a 12.773659,12.23465 0 0 0 0.21875,-0.0625 l 0.6875,-0.28125 a 12.773659,12.23465 0 0 0 0.125,-0.15625 L 950.75,363.5313 a 12.773659,12.23465 0 0 0 0.3125,-0.15625 l 0.59375,-0.28125 a 12.773659,12.23465 0 0 0 0.21875,-0.125 l 0.59375,-0.28125 a 12.773659,12.23465 0 0 0 0.21875,-0.15625 l 0.59375,-0.34375 A 12.773659,12.23465 0 0 0 953.5,362.125 l 0.59375,-0.375 a 12.773659,12.23465 0 0 0 0.15625,-0.125 l 0.65625,-0.34375 a 12.773659,12.23465 0 0 0 0.15625,-0.0937 l 0.65625,-0.40625 a 12.773659,12.23465 0 0 0 0.0625,-0.0937 l 0.6875,-0.34375 a 12.773659,12.23465 0 0 0 0.125,-0.125 l 0.6875,-0.4375 a 12.773659,12.23465 0 0 0 0.0625,-0.0625 L 958,359.28125 a 12.773659,12.23465 0 0 0 0.0937,0 l 0.65625,-0.5 a 12.773659,12.23465 0 0 0 0.0625,-0.0625 l 0.6875,-0.4375 a 12.773659,12.23465 0 0 0 0.0625,-0.0625 l 0.65625,-0.4375 a 12.773659,12.23465 0 0 0 0.0937,-0.0625 l 0.5625,-0.40625 a 12.773659,12.23465 0 0 0 0.15625,-0.0937 l 0.59375,-0.5 a 12.773659,12.23465 0 0 0 0.15625,-0.0625 l 0.59375,-0.5 a 12.773659,12.23465 0 0 0 0.0625,0 l 0.65625,-0.5 a 12.773659,12.23465 0 0 0 0.0937,-0.0625 l 0.59375,-0.40625 a 12.773659,12.23465 0 0 0 0.0625,-0.0937 l 0.6564,-0.46885 0.6875,-0.59375 a 12.773659,12.23465 0 0 0 0.0625,0 l 0.59375,-0.46875 a 12.773659,12.23465 0 0 0 0.0625,0 l 0.59375,-0.5 a 12.773659,12.23465 0 0 0 0.0937,-0.0937 L 967.25,352.5 a 12.773659,12.23465 0 0 0 0,-0.0937 l 0.65625,-0.5 0.6875,-0.46875 0.65625,-0.59375 0.65625,-0.46875 a 12.773659,12.23465 0 0 0 0,-0.0937 l 0.65625,-0.5 0.59375,-0.46875 0.6875,-0.59375 0.65625,-0.46875 0.65625,-0.59375 0.59375,-0.46875 0.59375,-0.5 0.65625,-0.5 0.59375,-0.5 0.59375,-0.4375 0.0937,-0.0625 0.59375,-0.5 0.5625,-0.40625 0.53125,-0.4375 0.0625,-0.0625 0.59375,-0.4375 0.59375,-0.5 v 0.0937 l 0.53125,-0.5 h 0.0625 l 0.53125,-0.4375 h 0.0625 l 0.53125,-0.34375 0.0625,-0.0625 0.4375,-0.375 0.0937,-0.0625 0.5,-0.34375 0.0625,-0.0937 0.46875,-0.28125 0.125,-0.0625 0.375,-0.28125 0.15625,-0.0625 0.4375,-0.375 h 0.0937 l 0.4375,-0.28125 0.125,-0.125 0.375,-0.21875 0.0937,-0.0625 0.4375,-0.28125 0.0625,-0.0937 0.375,-0.1875 0.15625,-0.0937 0.375,-0.1875 0.125,-0.0937 0.375,-0.21875 0.15625,-0.0625 0.28125,-0.125 0.15625,-0.15625 0.3125,-0.125 0.125,-0.0937 0.3125,-0.125 0.21875,-0.15625 0.15625,-0.0625 0.125,-0.0625 0.15625,-0.0937 0.21875,-0.0625 0.15625,-0.0625 0.21875,-0.0625 0.21875,-0.15625 0.15625,-0.0625 0.21875,-0.0625 0.15625,-0.0937 0.34375,-0.125 0.3125,-0.0625 0.0625,-0.0937 0.21875,-0.0625 h 0.0937 l 0.28125,-0.15625 h 0.0937 l 0.21875,-0.0625 h 0.0625 l 0.21875,-0.0625 h 0.0937 l 0.28125,-0.0625 0.28125,-0.0937 0.3125,-0.0625 h 0.0625 0.3125 l 0.28125,-0.0625 h 0.375 l 0.3125,-0.0625 h 0.34375 0.3125 0.0625 0.3125 0.0625 0.28125 0.0937 0.28125 0.0937 0.21875 l 0.21875,0.0625 h 0.21875 0.15625 0.21875 l 0.21875,0.0625 h 0.15625 0.21875 l 0.28125,0.0625 h 0.15625 0.21875 l 0.21875,0.0937 0.59375,0.125 v -0.0625 l 0.28125,0.0625 0.25,0.0625 h 0.28125 l 0.15625,0.0937 0.2813,0.0625 h 0.1563 l 0.375,0.15625 h 0.062 l 0.375,0.0625 0.2188,0.0625 0.3125,0.0625 h 0.125 l 0.375,0.15625 h 0.1563 l 0.375,0.125 h 0.125 l 0.375,0.15625 h 0.1562 l 0.4375,0.125 h 0.094 l 0.4376,0.15625 0.062,0.0625 0.4376,0.15625 h 0.094 l 0.5,0.125 0.094,0.0937 0.5,0.125 h 0.094 l 0.4375,0.15625 0.125,0.0625 0.4687,0.125 0.063,0.0937 0.5312,0.125 h 0.062 l 0.5313,0.21875 h 0.062 l 0.5,0.21875 h 0.094 l 0.5938,0.21875 0.5937,0.1875 h 0.062 l 0.5938,0.21875 0.5937,0.28125 0.5937,0.21875 0.6563,0.21875 a 12.773659,12.23465 0 0 0 0.062,0 l 0.5938,0.21875 0.094,0.0625 0.5,0.21875 a 12.773659,12.23465 0 0 0 0.094,0 l 0.6563,0.21875 0.6563,0.28125 0.6874,0.1875 0.6563,0.21875 a 12.773659,12.23465 0 0 0 0.062,0.0625 l 0.5938,0.21875 a 12.773659,12.23465 0 0 0 0.094,0 l 0.5625,0.21875 a 12.773659,12.23465 0 0 0 0.094,0 l 0.657,0.21845 a 12.773659,12.23465 0 0 0 0.062,0.0625 l 0.6875,0.21875 0.6562,0.21875 a 12.773659,12.23465 0 0 0 0.1563,0 l 0.5937,0.21875 a 12.773659,12.23465 0 0 0 0.063,0.0625 l 0.6562,0.125 a 12.773659,12.23465 0 0 0 0.094,0.0937 l 0.5937,0.125 a 12.773659,12.23465 0 0 0 0.125,0.0625 l 0.6875,0.21875 a 12.773659,12.23465 0 0 0 0.062,0 l 0.6563,0.21875 a 12.773659,12.23465 0 0 0 0.1562,0 l 0.5938,0.21875 a 12.773659,12.23465 0 0 0 0.1562,0 l 0.6566,0.2188 a 12.773659,12.23465 0 0 0 0.063,0 l 0.6874,0.125 a 12.773659,12.23465 0 0 0 0.125,0.0625 l 0.6876,0.15625 a 12.773659,12.23465 0 0 0 0.125,0.0625 l 0.5937,0.15625 a 12.773659,12.23465 0 0 0 0.2187,0 l 0.6876,0.125 a 12.773659,12.23465 0 0 0 0.062,0.0937 l 0.6563,0.0625 a 12.773659,12.23465 0 0 0 0.25,0.0625 l 0.6563,0.15625 a 12.773659,12.23465 0 0 0 0.1562,0 l 0.6562,0.125 a 12.773659,12.23465 0 0 0 0.2188,0 l 0.5938,0.15625 a 12.773659,12.23465 0 0 0 0.2187,0 l 0.6563,0.0625 a 12.773659,12.23465 0 0 0 0.1562,0.0625 l 0.6562,0.0625 a 12.773659,12.23465 0 0 0 0.3126,0 l 0.5937,0.0937 a 12.773659,12.23465 0 0 0 0.2187,0.0625 h 0.6563 a 12.773659,12.23465 0 0 0 0.2187,0.0625 h 0.6563 a 12.773659,12.23465 0 0 0 0.3125,0 l 0.5938,0.0937 a 12.773659,12.23465 0 0 0 0.2812,0 h 0.5938 a 12.773659,12.23465 0 0 0 0.3124,0 l 0.6563,0.0625 0.2813,-24.5 h -0.3438 -0.3125 -0.1563 -0.2187 -0.125 L 1038,321.3124 h -0.062 -0.2187 -0.2188 -0.2188 l -0.1562,-0.0625 h -0.2188 l -0.4687,-0.0625 h -0.2187 l -0.2188,-0.0625 h -0.2188 l -0.2187,-0.0937 h -0.2187 l -0.2188,-0.0625 h -0.2188 l -0.2187,-0.0625 -0.3125,-0.0625 h -0.062 l -0.375,-0.0937 -0.1563,-0.0625 -0.375,-0.0625 h -0.125 l -0.3124,-0.0625 v -0.0937 l -0.5,-0.0625 -0.1563,-0.0625 -0.375,-0.0937 -0.1563,-0.0625 -0.3437,-0.0625 -0.1563,-0.0625 -0.4374,-0.15625 h -0.094 l -0.375,-0.125 h -0.125 l -0.4375,-0.15625 h -0.094 l -0.5,-0.21875 h -0.094 l -0.4375,-0.125 -0.1563,-0.0937 -0.4374,-0.125 h -0.063 l -0.5312,-0.15625 h -0.062 l -0.5313,-0.1875 -0.5937,-0.21875 -0.5937,-0.21875 h -0.063 l -0.5312,-0.21875 -0.5625,-0.21875 a 12.773659,12.23465 0 0 0 -0.094,0 l -0.5938,-0.1875 -0.5938,-0.21875 -0.5937,-0.28125 a 12.773659,12.23465 0 0 0 -0.062,0 l -0.5938,-0.21875 h -0.062 l -0.5938,-0.21875 -0.6562,-0.21875 a 12.773659,12.23465 0 0 0 0,-0.0625 l -0.6876,-0.21875 -0.5943,-0.2189 a 12.773659,12.23465 0 0 0 -0.062,0 l -0.6562,-0.28125 -0.5938,-0.1875 a 12.773659,12.23465 0 0 0 -0.094,0 l -0.6562,-0.21875 a 12.773659,12.23465 0 0 0 -0.062,-0.0625 l -0.5937,-0.21875 a 12.773659,12.23465 0 0 0 -0.094,0 l -0.6562,-0.21875 -0.6563,-0.21875 a 12.773659,12.23465 0 0 0 -0.094,-0.0625 l -0.6563,-0.21875 a 12.773659,12.23465 0 0 0 -0.062,0 l -0.5938,-0.21875 a 12.773659,12.23465 0 0 0 -0.094,0 l -0.6563,-0.1875 a 12.773659,12.23465 0 0 0 -0.062,-0.0937 l -0.6563,-0.125 a 12.773659,12.23465 0 0 0 -0.094,-0.0937 l -0.6563,-0.1875 a 12.773659,12.23465 0 0 0 -0.094,0 l -0.6563,-0.21875 a 12.773659,12.23465 0 0 0 -0.1563,0 l -0.5624,-0.21875 a 12.773659,12.23465 0 0 0 -0.1563,0 L 1009.375,312.75 a 12.773659,12.23465 0 0 0 -0.062,0 l -0.6563,-0.125 a 12.773659,12.23465 0 0 0 -0.1562,-0.0937 l -0.5938,-0.125 a 12.773659,12.23465 0 0 0 -0.2187,-0.0625 l -0.5937,-0.15625 a 12.773659,12.23465 0 0 0 -0.1563,0 l -0.6563,-0.125 a 12.773659,12.23465 0 0 0 -0.1562,-0.0937 l -0.6562,-0.125 a 12.773659,12.23465 0 0 0 -0.1563,0 l -0.6563,-0.15625 a 12.773659,12.23465 0 0 0 -0.2187,-0.0625 l -0.6563,-0.0625 a 12.773659,12.23465 0 0 0 -0.094,-0.0937 l -0.6563,-0.0625 a 12.773659,12.23465 0 0 0 -0.2187,-0.0625 l -0.6563,-0.0625 A 12.773659,12.23465 0 0 0 1002,311.1875 l -0.6562,-0.0625 a 12.773659,12.23465 0 0 0 -0.3126,0 l -0.5937,-0.0625 A 12.773659,12.23465 0 0 0 1000.2188,311 l -0.6563,-0.0937 a 12.773659,12.23465 0 0 0 -0.21875,0 l -0.6875,-0.0625 a 12.773659,12.23465 0 0 0 -0.21875,0 h -0.65625 a 12.773659,12.23465 0 0 0 -0.21875,-0.0625 h -0.65625 a 12.773659,12.23465 0 0 0 -0.3125,0 H 996 a 12.773659,12.23465 0 0 0 -0.28125,0 h -0.65625 a 12.773659,12.23465 0 0 0 -0.25,0 h -0.65625 a 12.773659,12.23465 0 0 0 -0.28125,0 h -0.6875 a 12.773659,12.23465 0 0 0 -0.28125,0 l -0.65625,0.0625 a 12.773659,12.23465 0 0 0 -0.3125,0 l -0.59375,0.0625 a 12.773659,12.23465 0 0 0 -0.375,0 L 990.375,311 a 12.773659,12.23465 0 0 0 -0.28125,0.0625 l -0.65625,0.0625 a 12.773659,12.23465 0 0 0 -0.375,0.0625 l -0.59375,0.0937 a 12.773659,12.23465 0 0 0 -0.375,0.0625 l -0.65625,0.125 a 12.773659,12.23465 0 0 0 -0.21875,0.0937 l -0.6875,0.125 a 12.773659,12.23465 0 0 0 -0.34375,0.0937 l -0.6875,0.125 a 12.773659,12.23465 0 0 0 -0.28125,0.0625 l -0.65625,0.15625 a 12.773659,12.23465 0 0 0 -0.3125,0.125 l -0.65625,0.15625 a 12.773659,12.23465 0 0 0 -0.3125,0.125 L 982.625,312.75 a 12.773659,12.23465 0 0 0 -0.28125,0.0937 l -0.59375,0.1875 a 12.773659,12.23465 0 0 0 -0.3125,0.0937 l -0.65625,0.28125 a 12.773659,12.23465 0 0 0 -0.3125,0.0625 L 979.8125,313.75 a 12.773659,12.23465 0 0 0 -0.21875,0.0625 L 979,314.09375 a 12.773659,12.23465 0 0 0 -0.28125,0.15625 l -0.6875,0.28125 a 12.773659,12.23465 0 0 0 -0.125,0.0625 l -0.6875,0.28125 A 12.773659,12.23465 0 0 0 977,315.03125 l -0.65625,0.28125 a 12.773659,12.23465 0 0 0 -0.15625,0.125 l -0.65625,0.28125 A 12.773659,12.23465 0 0 0 975.375,315.875 l -0.65625,0.34375 A 12.773659,12.23465 0 0 0 974.5,316.3125 l -0.6875,0.34375 a 12.773659,12.23465 0 0 0 -0.125,0.0625 l -0.59375,0.34375 a 12.773659,12.23465 0 0 0 -0.15625,0.15625 l -0.65625,0.34375 a 12.773659,12.23465 0 0 0 -0.15625,0.0937 l -0.65625,0.40625 a 12.773659,12.23465 0 0 0 -0.0937,0.0625 l -0.65625,0.4375 a 12.773659,12.23465 0 0 0 -0.15625,0.0625 L 969.96875,319 a 12.773659,12.23465 0 0 0 -0.125,0.125 l -0.6875,0.4375 a 12.773659,12.23465 0 0 0 -0.0625,0.0625 l -0.65625,0.4375 a 12.773659,12.23465 0 0 0 -0.0937,0.0625 l -0.65625,0.4375 a 12.773659,12.23465 0 0 0 -0.0625,0.0625 l -0.6875,0.40625 a 12.773659,12.23465 0 0 0 -0.0625,0.0937 l -0.65625,0.5 a 12.773659,12.23465 0 0 0 -0.0937,0 l -0.5625,0.46875 a 12.773659,12.23465 0 0 0 -0.15625,0.0937 l -0.59375,0.40625 a 12.773659,12.23465 0 0 0 -0.0937,0.0937 l -0.65625,0.46875 A 12.773659,12.23465 0 0 0 964,323.25 l -0.65625,0.40625 a 12.773659,12.23465 0 0 0 0,0.0625 l -0.6875,0.5 -0.65625,0.5 a 12.773659,12.23465 0 0 0 -0.0625,0.0625 l -0.6875,0.5 a 12.773659,12.23465 0 0 0 0,0.0937 l -0.65625,0.46875 -0.65625,0.5 a 12.773659,12.23465 0 0 0 -0.0937,0.0937 l -0.59375,0.46875 -0.65625,0.5 a 12.773659,12.23465 0 0 0 0,0.0937 l -0.65625,0.46875 -0.65625,0.5 a 12.773659,12.23465 0 0 0 0,0.0937 l -0.6875,0.46875 -0.65625,0.5 -0.59375,0.5625 -0.65625,0.5 -0.6875,0.5625 -0.59375,0.5 -0.5625,0.5 h -0.0937 l -0.59375,0.5 -0.59375,0.5 h -0.0625 l -0.59375,0.5 -0.59375,0.5 v -0.0937 l -0.59375,0.5 -0.59375,0.5 h -0.0625 l -0.53125,0.4375 -0.0625,0.0625 -0.53125,0.4375 -0.59375,0.40625 h -0.0625 l -0.5,0.4375 -0.53125,0.40625 -0.0625,0.0937 -0.53125,0.28125 -0.0625,0.0625 -0.4375,0.34375 -0.0937,0.0937 -0.5,0.34375 -0.0937,0.0625 -0.4375,0.28125 -0.0625,0.0625 -0.46875,0.28125 -0.0625,0.0937 -0.5,0.28125 -0.0937,0.0625 -0.375,0.21875 -0.125,0.125 -0.375,0.21875 -0.15625,0.0625 -0.375,0.21875 -0.125,0.15625 -0.3125,0.21875 -0.0625,-0.0937 -0.46875,0.28125 -0.4375,0.28125 -0.21875,0.0937 v 0.0625 l -0.28125,0.15625 -0.15625,0.0625 -0.21875,0.125 -0.21875,0.0937 -0.3125,0.125 -0.125,0.0625 -0.25,0.15625 -0.21875,0.0625 -0.125,0.0625 -0.3125,0.15625 -0.15625,0.0625 -0.21875,0.0937 -0.125,0.0625 -0.3125,0.0625 -0.0625,0.0625 -0.21875,0.0937 h -0.0937 l -0.28125,0.125 h -0.0625 l -0.3125,0.0625 -0.28125,0.15625 h -0.0937 l -0.125,0.0625 h -0.15625 -0.15625 l -0.15625,0.0625 h -0.125 -0.0937 l -0.15625,0.0937 h -0.125 -0.0937 l -0.34375,0.0625 h -0.15625 -0.0937 -0.125 -0.0937 -0.0625 -0.15625 -0.125 l -0.3125,-0.0625 h -0.0625 -0.0937 -0.0625 l -0.15625,-0.0937 h -0.0625 -0.0625 -0.0937 v -0.0625 h -0.0625 -0.0937 l -0.0625,-0.0625 h -0.15625 l -0.0625,-0.0625 -0.15625,-0.0937 -0.21875,-0.0625 -0.15625,-0.0625 -0.0625,-0.0625 h -0.0625 l -0.15625,-0.0937 -0.0625,-0.0625 -0.15625,-0.0625 -0.21875,-0.15625 -0.3125,-0.21875 -0.28125,-0.1875 h -0.0937 l -0.125,-0.0937 -0.15625,-0.125 -0.0625,-0.0625 -0.21875,-0.21875 -0.15625,-0.15625 -0.3125,-0.21875 -0.21875,-0.125 -0.15625,-0.15625 -0.21875,-0.1875 -0.21875,-0.21875 -0.28125,-0.21875 -0.0937,-0.0625 -0.0625,-0.0937 -0.28125,-0.34375 -0.15625,-0.125 -0.375,-0.28125 -0.15705,-0.2185 -0.34375,-0.375 -0.0937,-0.0625 -0.4375,-0.40625 -0.0625,-0.15625 -0.46875,-0.4375 -0.0625,-0.125 -0.53125,-0.4375 0.0937,-0.0625 -0.53125,-0.5625 -0.125,-0.15625 -0.46875,-0.5625 -0.0625,-0.0625 -0.53125,-0.5625 -0.0625,-0.0625 -0.4375,-0.65625 -0.0937,-0.0625 -0.5,-0.625 -0.0625,-0.0937 -0.53125,-0.625 -0.0625,-0.0625 -0.53125,-0.71875 -0.0625,-0.0625 -0.53125,-0.71875 v -0.0625 l -0.59375,-0.78125 -0.0625,0.0625 -0.53125,-0.78125 v -0.0625 l -0.59375,-0.71875 -0.0625,-0.0625 -0.59375,-0.84375 h 0.0625 l -0.5625,-0.78125 -0.0937,-0.0625 -0.59375,-0.78125 v -0.0937 l -0.59375,-0.84375 -0.65625,-0.84375 v -0.0625 l -0.59375,-0.84375 -0.59375,-0.875 -0.0625,-0.0625 -0.59375,-0.90625 -0.65625,-0.9375 h 0.0625 l -0.65625,-0.90625 -0.6875,-0.9375 L 910.75,318.5 l -0.65625,-0.9375 a 12.773659,12.23465 0 0 0 0,-0.0625 l -0.65625,-0.90625 -0.59375,-0.9375 -0.65625,-0.90625 a 12.773659,12.23465 0 0 0 0,-0.0937 L 907.5,313.75 l -0.65625,-0.90625 a 12.773659,12.23465 0 0 0 0,-0.0937 l -0.59375,-0.9063 a 12.773659,12.23465 0 0 0 -0.0625,0 l -0.59375,-0.9375 a 12.773659,12.23465 0 0 0 -0.0937,0 L 904.9375,310 a 12.773659,12.23465 0 0 0 -0.0937,-0.0625 L 904.1875,309 903.59375,308.09375 A 12.773659,12.23465 0 0 0 903.53125,308 l -0.59375,-0.90625 a 12.773659,12.23465 0 0 0 -0.0937,0 l -0.65625,-0.90625 -0.65625,-0.9375 a 12.773659,12.23465 0 0 0 0,-0.0625 l -0.6875,-0.84375 a 12.773659,12.23465 0 0 0 -0.0625,-0.0937 l -0.59375,-0.84375 a 12.773659,12.23465 0 0 0 -0.0625,-0.0625 l -0.5938,-0.8438 a 12.773659,12.23465 0 0 0 -0.0937,-0.0937 l -0.65625,-0.84375 a 12.773659,12.23465 0 0 0 -0.0625,-0.0625 l -0.59375,-0.78125 a 12.773659,12.23465 0 0 0 -0.0937,-0.15625 l -0.65625,-0.75 a 12.773659,12.23465 0 0 0 -0.0625,-0.0937 l -0.59375,-0.78125 a 12.773659,12.23465 0 0 0 -0.15625,-0.125 l -0.59375,-0.78125 a 12.773659,12.23465 0 0 0 -0.0625,-0.0625 L 895.25,297.1875 a 12.773659,12.23465 0 0 0 -0.0937,-0.0937 l -0.65625,-0.75 a 12.773659,12.23465 0 0 0 -0.0625,-0.15625 l -0.6875,-0.71875 a 12.773659,12.23465 0 0 0 -0.0625,-0.0625 l -0.65625,-0.71875 a 12.773659,12.23465 0 0 0 -0.15625,-0.125 l -0.59375,-0.71875 a 12.773659,12.23465 0 0 0 -0.15625,-0.125 l -0.65625,-0.65625 a 12.773659,12.23465 0 0 0 -0.15625,-0.125 l -0.59375,-0.71875 a 12.773659,12.23465 0 0 0 -0.125,-0.125 L 889.90625,291.5 a 12.773659,12.23465 0 0 0 -0.125,-0.1875 l -0.6875,-0.5625 a 12.773659,12.23465 0 0 0 -0.15625,-0.21875 l -0.65625,-0.5625 a 12.773659,12.23465 0 0 0 -0.21875,-0.15625 l -0.53125,-0.5 z M 576.34375,349 l -9.5,26.90625 h -18.1875 L 548.5,378.25 l -0.625,7.4375 H 573.5 l 0.40625,-5.59375 0.6875,-8.28125 0.65625,-8.28125 0.59375,-8.28125 z m -322.71875,26.71875 -0.125,0.5625 h 0.0625 l -0.65625,2.625 v 0.0625 l -0.59375,2.46875 v 0.0937 l -0.6875,2.46875 v 0.0625 l -0.59375,2.34375 v 0.0625 l -0.65625,2.34375 h 0.0937 l -0.59375,2.125 -0.0937,0.15625 -0.59375,2.03125 v 0.0937 l -0.59375,1.96875 v 0.0625 L 248,397.09365 l -0.0625,0.15625 -0.5,1.6875 -0.0937,0.15625 -0.5,1.53125 -0.0937,0.21875 -0.4375,1.4375 -0.0625,0.1875 -0.375,0.9375 -0.375,-0.78125 -0.0625,-0.21875 -0.53125,-1 -0.0625,-0.125 -0.53125,-1.21875 h -0.0625 l -0.53125,-1.1875 v -0.0625 l -0.59375,-1.28125 v -0.0937 l -0.59375,-1.40625 h -0.0625 l -0.4375,-1.125 -11,31.5 0.40625,0.4375 a 12.773659,12.23465 0 0 0 0.46875,0.40625 l 0.59375,0.65625 a 12.773659,12.23465 0 0 0 0.5625,0.5 l 0.59375,0.5625 a 12.773659,12.23465 0 0 0 0.6875,0.5625 L 235,429.96875 a 12.773659,12.23465 0 0 0 0.75,0.5625 l 0.65625,0.40625 a 12.773659,12.23465 0 0 0 1.03125,0.5625 l 0.59375,0.375 a 12.773659,12.23465 0 0 0 1.1875,0.5 l 0.65625,0.28125 a 12.773659,12.23465 0 0 0 1.25,0.40625 l 0.6875,0.21875 a 12.773659,12.23465 0 0 0 1.53125,0.34375 l 0.59375,0.0937 a 12.773659,12.23465 0 0 0 1.71875,0.21875 H 246.25 a 12.773659,12.23465 0 0 0 1.6875,-0.0937 l 0.65625,-0.0625 a 12.773659,12.23465 0 0 0 1.71875,-0.21875 l 0.65625,-0.125 a 12.773659,12.23465 0 0 0 1.46875,-0.5 l 0.6875,-0.21875 a 12.773659,12.23465 0 0 0 1.40625,-0.5625 l 0.65625,-0.34375 a 12.773659,12.23465 0 0 0 1.1875,-0.65625 L 256.96875,430.75 A 12.773659,12.23465 0 0 0 258,430.03125 l 0.65625,-0.5 a 12.773659,12.23465 0 0 0 0.75,-0.625 L 260.0625,428.25 a 12.773659,12.23465 0 0 0 0.65625,-0.625 l 0.6875,-0.65625 a 12.773659,12.23465 0 0 0 0.5,-0.625 l 0.65625,-0.78125 A 12.773659,12.23465 0 0 0 262.9375,425 l 0.6875,-0.84375 a 12.773659,12.23465 0 0 0 0.34375,-0.5 l 0.59375,-1 a 12.773659,12.23465 0 0 0 0.3125,-0.5 l 0.65625,-1.0625 A 12.773659,12.23465 0 0 0 265.75,420.75 l 0.65625,-1.21875 a 12.773659,12.23465 0 0 0 0.25,-0.40625 l 0.5625,-1.28125 a 12.773659,12.23465 0 0 0 0.15625,-0.28125 l 0.6875,-1.40625 a 12.773659,12.23465 0 0 0 0.125,-0.28125 l 0.59375,-1.5 a 12.773659,12.23465 0 0 0 0.15625,-0.28125 l 0.65625,-1.625 a 12.773659,12.23465 0 0 0 0.0937,-0.21875 l 0.5625,-1.6875 a 12.773659,12.23465 0 0 0 0.15625,-0.21875 L 271,408.5625 a 12.773659,12.23465 0 0 0 0.0937,-0.21875 l 0.6563,-1.90625 a 12.773659,12.23465 0 0 0 0,-0.125 l 0.65625,-2 a 12.773659,12.23465 0 0 0 0.0625,-0.125 l 0.6875,-2.125 a 12.773659,12.23465 0 0 0 0,-0.15625 l 0.65625,-2.125 a 12.773659,12.23465 0 0 0 0,-0.125 l 0.65625,-2.28125 a 12.773659,12.23465 0 0 0 0,-0.0625 l 0.6875,-2.40625 a 12.773659,12.23465 0 0 0 0,-0.0625 l 0.65625,-2.40625 a 12.773659,12.23465 0 0 0 0,-0.15625 l 0.65625,-2.46875 a 12.773659,12.23465 0 0 0 0,-0.0937 l 0.6875,-2.59375 a 12.773659,12.23465 0 0 0 0,-0.0937 l 0.65625,-2.59375 a 12.773659,12.23465 0 0 0 0,-0.0937 l 0.65625,-2.75 a 12.773659,12.23465 0 0 0 0,-0.0625 L 279.125,378.75 a 12.773659,12.23465 0 0 0 0,-0.0625 l 0.59375,-2.90625 a 12.773659,12.23465 0 0 0 0.0937,0 v -0.0625 h -26.1875 z m 241.25,0.1875 -3.25,9.78125 H 510.5 l -0.0937,-1.1875 -0.625,-8.59375 h -14.90625 z m -4.40625,86.625 0.1875,2.46875 a 12.773659,12.23465 0 0 0 0.0937,0 l 0.59375,8.375 0.65625,8.28125 0.65625,8.125 0.59375,8.09375 0.65625,7.9375 0.6875,7.78125 0.59375,7.65625 a 12.773659,12.23465 0 0 0 0,0.0625 l 0.65625,7.5 0.65625,7.375 0.59375,7.21875 a 12.773659,12.23465 0 0 0 0.0937,0 l 0.5625,7.0625 0.6875,6.875 a 12.773659,12.23465 0 0 0 0,0.0937 l 0.65625,6.71875 0.59375,6.5 a 12.773659,12.23465 0 0 0 0,0.0937 l 0.65625,6.28125 a 12.773659,12.23465 0 0 0 0,0.0937 l 0.6875,6.15625 0.65625,5.9375 a 12.773659,12.23465 0 0 0 0,0.0625 l 0.59375,5.75 a 12.773659,12.23465 0 0 0 0,0.0625 l 0.65625,5.53125 a 12.773659,12.23465 0 0 0 0,0.0625 L 503.59375,606 a 12.773659,12.23465 0 0 0 0,0.0625 l 0.6875,5.125 0.59375,4.875 a 12.773659,12.23465 0 0 0 0.0625,0.0625 l 0.59375,4.59375 a 12.773659,12.23465 0 0 0 0,0.15625 l 0.65625,4.3125 a 12.773659,12.23465 0 0 0 0,0.15625 l 0.65625,4.09375 a 12.773659,12.23465 0 0 0 0,0.15625 l 0.6875,3.8125 a 12.773659,12.23465 0 0 0 0,0.15625 l 0.65625,3.59375 a 12.773659,12.23465 0 0 0 0,0.15625 l 0.65625,3.3125 a 12.773659,12.23465 0 0 0 0,0.21875 l 0.6875,3.03125 a 12.773659,12.23465 0 0 0 0.0625,0.3125 l 0.65625,2.75 a 12.773659,12.23465 0 0 0 0.0937,0.28125 l 0.59375,2.46875 a 12.773659,12.23465 0 0 0 0.125,0.375 l 0.59375,2.1875 a 12.773659,12.23465 0 0 0 0.15625,0.5 l 0.65625,1.84375 a 12.773659,12.23465 0 0 0 0.21875,0.625 l 0.6875,1.625 a 12.773659,12.23465 0 0 0 0.4375,0.9375 l 0.65625,1.1875 a 12.773659,12.23465 0 0 0 0.75,1.34375 l 0.65625,1 a 12.773659,12.23465 0 0 0 1.6875,1.90625 l 0.59375,0.625 a 12.773659,12.23465 0 0 0 3.40625,2.28125 l 0.6875,0.28125 a 12.773659,12.23465 0 0 0 5.6875,1.28125 h 0.65625 a 12.773659,12.23465 0 0 0 5.625,-1.34375 l 0.59375,-0.28125 a 12.773659,12.23465 0 0 0 3.25,-2.21875 l 0.59375,-0.5625 a 12.773659,12.23465 0 0 0 1.625,-1.84375 l 0.65625,-0.84375 a 12.773659,12.23465 0 0 0 0.8125,-1.28125 l 0.59375,-1.1875 a 12.773659,12.23465 0 0 0 0.4375,-0.9375 l 0.6875,-1.40625 a 12.773659,12.23465 0 0 0 0.28125,-0.6875 l 0.59375,-1.71875 a 12.773659,12.23465 0 0 0 0.15625,-0.5 l 0.65625,-1.96875 a 12.773659,12.23465 0 0 0 0.15625,-0.4375 l 0.59375,-2.1875 a 12.773659,12.23465 0 0 0 0.125,-0.34375 l 0.59375,-2.5 a 12.773659,12.23465 0 0 0 0.0937,-0.28125 l 0.65625,-2.75 a 12.773659,12.23465 0 0 0 0,-0.21875 l 0.65625,-2.96875 A 12.773659,12.23465 0 0 0 548.125,639 l 0.59375,-3.25 a 12.773659,12.23465 0 0 0 0.0625,-0.15625 L 549.375,632.125 A 12.773659,12.23465 0 0 0 549.4375,632 l 0.59375,-3.6875 a 12.773659,12.23465 0 0 0 0.0625,-0.15625 l 0.59375,-3.875 a 12.773659,12.23465 0 0 0 0,-0.15625 l 0.6875,-4.09375 a 12.773659,12.23465 0 0 0 0,-0.0625 l 0.65625,-4.40625 a 12.773659,12.23465 0 0 0 0,-0.0625 l 0.65625,-4.625 0.6875,-4.8125 a 12.773659,12.23465 0 0 0 0,-0.0625 l 0.59375,-4.96875 a 12.773659,12.23465 0 0 0 0,-0.0625 L 554.625,595.875 a 12.773659,12.23465 0 0 0 0,-0.0625 l 0.65625,-5.3125 a 12.773659,12.23465 0 0 0 0,-0.0625 l 0.65625,-5.53125 a 12.773659,12.23465 0 0 0 0,-0.0625 l 0.59375,-5.6875 0.6875,-5.875 a 12.773659,12.23465 0 0 0 0,-0.0625 l 0.65625,-6.03125 0.65625,-6.15625 a 12.773659,12.23465 0 0 0 0,-0.0625 l 0.59375,-6.3125 0.65625,-6.5 0.6875,-6.59375 a 12.773659,12.23465 0 0 0 0,-0.0625 l 0.59375,-6.75 0.65625,-6.84375 a 12.773659,12.23465 0 0 0 0,-0.0937 l 0.65625,-6.9375 a 12.773659,12.23465 0 0 0 0,-0.0625 l 0.6875,-7.09375 0.5625,-7.21875 a 12.773659,12.23465 0 0 0 0,-0.0625 l 0.6875,-7.28125 0.65625,-7.4375 0.59375,-7.59375 0.65625,-7.5625 a 12.773659,12.23465 0 0 0 0,-0.0937 l 0.6875,-7.625 0.46875,-6.3125 H 541.75 l -0.375,4.3125 -0.59375,7.71875 -0.65625,7.59375 -0.65625,7.5 -0.59375,7.4375 -0.65625,7.28125 v 0.0937 l -0.6875,7.125 -0.59375,7.09375 v 0.0625 l -0.65625,6.9375 -0.65625,6.875 -0.59375,6.71875 -0.65625,6.59375 -0.6875,6.4375 -0.59375,6.3125 -0.65625,6.09375 v 0.0625 l -0.65625,5.96875 h 0.0625 l -0.65625,5.78125 -0.65625,5.6875 -0.59375,5.4375 v 0.0625 l -0.6875,5.25 -0.65625,5.09375 v 0.0937 l -0.15625,1.0625 -0.125,-1.28125 v -0.0625 l -0.59375,-5.46875 -0.6875,-5.65625 v -0.0937 l -0.59375,-5.875 -0.65625,-6.0625 v -0.0937 l -0.65625,-6.21875 v -0.0625 l -0.59375,-6.46875 -0.65625,-6.65625 v -0.0625 l -0.6875,-6.78125 -0.59375,-7.03125 v -0.0625 l -0.65625,-7.15625 -0.65625,-7.375 -0.59375,-7.4375 v -0.0625 l -0.65625,-7.5625 -0.6875,-7.8125 -0.59375,-7.90625 -0.65625,-8 -0.65625,-8.15625 -0.59375,-8.21875 -0.65625,-8.34375 -0.0625,-0.71875 h -25.65625 z" />
      <g id="letters" transform="matrix(0.40247365,0,0,0.40247365,387.52549,156.86445)">
        <path d="m -634.28572,776.6479 148.57143,-420 c 0,0 41.42858,-94.28572 145.71429,-107.14286 H 101.42857 L 68.571429,345.21933 H -242.85714 c 0,0 -55.71428,8.57143 -81.42857,62.85714 l -20,55.71428 h 178.57142 L -200,560.93361 h -177.14286 l -77.14285,215.71429 z" />
        <path d="m 525.71429,776.6479 32.85714,-97.14286 H 250 c -52.85714,-10 -38.57143,-61.42857 -38.57143,-61.42857 l 20,-57.14286 H 410 l 34.28571,-97.14286 h -180 l 21.42858,-55.71428 c 0,0 18.57142,-47.14285 78.57142,-62.85714 l 314.28572,1.42857 33.27556,-97.56128 -437.56128,0.41842 c -101.42857,10 -148.57142,100 -148.57142,100 L 15.714286,660.93361 c 0,0 -31.428572,99.16317 67.142857,115.71429 z" />
        <path d="M 967.72614,776.59054 1120.2592,345.2554 h 189.9087 l 34.3451,-96.97464 H 872.7718 C 775.79716,262.4229 747.51288,345.2554 747.51288,345.2554 l 190.91883,1.01015 -151.52288,430.32499 z" />
      </g>
    </g>
  </g>
</svg>
