<?xml version="1.0" standalone="no"?>
<!DOCTYPE svg PUBLIC "-//W3C//DTD SVG 20010904//EN"
 "http://www.w3.org/TR/2001/REC-SVG-20010904/DTD/svg10.dtd">
<svg version="1.0" xmlns="http://www.w3.org/2000/svg"
 width="1027.000000pt" height="1027.000000pt" viewBox="0 0 1027.000000 1027.000000"
 preserveAspectRatio="xMidYMid meet">
<metadata>
Created by potrace 1.14, written by Peter Selinger 2001-2017
</metadata>
<g transform="translate(0.000000,1027.000000) scale(0.100000,-0.100000)"
fill="#000000" stroke="none">
<path d="M4398 8445 c-54 -37 -91 -111 -113 -226 -3 -13 -7 -35 -10 -49 -9
-42 -14 -73 -20 -115 -4 -22 -9 -53 -12 -70 -3 -16 -6 -41 -8 -55 -2 -14 -6
-45 -9 -70 -3 -25 -9 -67 -12 -95 -3 -27 -8 -61 -9 -75 -2 -14 -6 -54 -10 -90
-4 -36 -8 -76 -10 -90 -2 -14 -7 -56 -10 -95 -4 -38 -8 -86 -11 -105 -2 -19
-6 -62 -9 -95 -3 -33 -7 -80 -10 -105 -6 -64 -14 -154 -20 -230 -3 -36 -7 -85
-10 -110 -3 -25 -7 -70 -10 -100 -2 -30 -7 -91 -11 -135 -4 -44 -7 -102 -8
-130 l-1 -50 65 -2 c36 -1 89 -3 119 -3 29 -1 57 2 61 7 5 4 11 46 15 93 3 47
7 99 9 115 2 17 7 71 11 120 3 50 8 108 11 130 2 22 6 69 9 105 3 36 8 90 11
120 3 30 7 73 9 95 21 240 31 336 51 495 4 30 7 65 7 78 1 26 17 30 18 5 1
-10 2 -29 4 -43 13 -130 17 -170 20 -200 2 -19 7 -66 11 -105 3 -38 7 -83 9
-100 2 -16 6 -61 9 -100 3 -38 8 -95 11 -125 5 -52 11 -126 20 -250 2 -30 7
-84 10 -120 10 -111 14 -172 20 -254 7 -120 6 -118 68 -96 29 10 75 21 102 25
86 10 90 12 89 29 -1 9 -5 65 -9 124 -12 181 -16 224 -30 387 -2 33 -7 87 -10
120 -3 33 -7 80 -10 105 -2 25 -7 79 -10 120 -3 41 -8 93 -10 115 -3 22 -7 67
-10 100 -2 33 -7 82 -10 109 -7 55 -10 82 -20 181 -3 39 -9 81 -11 95 -3 14
-7 46 -9 73 -4 40 -34 231 -50 318 -13 69 -48 161 -72 190 -52 62 -133 76
-195 34z"/>
<path d="M5784 8061 c-48 -29 -91 -105 -108 -191 -3 -14 -12 -55 -20 -91 -8
-37 -22 -118 -31 -180 -8 -63 -18 -130 -21 -149 -3 -19 -7 -55 -10 -80 -2 -25
-6 -58 -8 -75 -5 -28 -12 -95 -21 -175 -2 -19 -6 -60 -10 -90 -3 -30 -7 -73
-9 -95 -13 -138 -18 -194 -22 -225 -2 -19 -6 -60 -8 -90 -10 -126 -17 -207
-21 -236 l-4 -32 130 1 c123 1 129 2 130 21 1 12 3 35 4 51 2 17 6 59 9 95 3
36 8 92 11 125 3 33 8 80 10 105 3 25 7 70 10 100 3 30 8 78 10 105 3 28 8 70
10 95 3 25 7 63 10 85 13 127 17 167 26 229 11 78 19 96 20 45 0 -19 2 -43 4
-54 3 -11 7 -40 9 -65 3 -25 8 -59 10 -76 3 -17 8 -60 12 -95 3 -35 8 -75 9
-89 5 -35 16 -136 21 -190 2 -25 6 -63 8 -85 3 -22 8 -65 11 -95 3 -30 7 -75
10 -100 2 -25 7 -72 9 -105 10 -110 -4 -100 140 -100 l127 -1 -6 66 c-3 36 -8
83 -10 105 -2 22 -7 72 -10 110 -4 39 -9 86 -11 105 -7 61 -13 113 -18 170 -7
75 -15 146 -22 200 -4 25 -8 59 -9 75 -5 49 -26 218 -31 245 -2 14 -6 45 -10
70 -3 25 -7 52 -9 60 -2 8 -7 38 -10 65 -4 28 -11 66 -16 85 -4 20 -11 51 -14
70 -21 149 -80 264 -149 289 -42 17 -98 13 -132 -8z"/>
<path d="M2981 7034 c-45 -25 -87 -68 -97 -99 -4 -11 -9 -22 -13 -25 -13 -11
-94 -260 -84 -260 3 0 0 -7 -7 -15 -7 -8 -10 -15 -8 -15 3 0 -3 -35 -14 -77
-20 -83 -31 -135 -32 -168 -1 -19 19 -26 74 -25 8 0 52 1 97 1 l81 1 12 66 c7
37 15 72 19 77 3 6 6 15 6 20 0 6 7 36 15 68 14 62 24 60 34 -9 4 -22 9 -51
12 -64 3 -14 10 -55 16 -91 l10 -66 127 1 126 1 -2 30 c0 17 -4 48 -8 70 -3
22 -8 54 -11 70 -2 17 -6 36 -9 43 -2 7 -7 34 -11 60 -3 26 -8 50 -11 55 -2 4
-6 19 -9 33 -24 132 -75 251 -128 296 -53 46 -127 55 -185 22z"/>
<path d="M7240 6500 c-50 -9 -100 -33 -100 -47 0 -7 -4 -13 -10 -13 -10 0 -53
-69 -69 -113 -9 -22 -8 -26 2 -20 6 4 18 8 25 9 8 2 21 6 30 10 42 18 118 27
229 27 l102 -1 -17 27 c-59 94 -122 134 -192 121z"/>
<path d="M7254 6158 c-57 -8 -172 -45 -194 -62 -8 -7 -28 -18 -45 -26 -50 -25
-177 -160 -212 -227 -18 -33 -33 -63 -33 -65 0 -5 88 -6 524 -7 l238 -1 -5
-22 c-7 -31 -113 -333 -121 -347 -4 -6 -9 -19 -11 -28 -3 -16 -56 -169 -130
-373 -14 -41 -35 -100 -45 -130 -10 -30 -29 -85 -44 -123 -14 -37 -26 -69 -26
-72 0 -3 -3 -10 -5 -17 -3 -7 -29 -83 -59 -168 -30 -85 -77 -220 -105 -299
-28 -79 -49 -146 -48 -148 4 -3 437 -6 638 -4 l86 1 27 78 c15 42 28 82 29 87
3 11 25 70 38 100 5 11 26 72 48 135 21 63 69 201 106 305 37 105 76 215 86
245 11 30 22 62 26 70 3 8 7 18 7 22 1 3 4 10 9 14 4 4 7 15 7 24 0 10 9 39
19 66 11 27 31 81 44 119 14 39 46 129 72 200 26 72 48 135 49 142 1 7 5 16 9
19 4 4 7 14 7 23 1 9 9 31 18 50 l17 34 378 1 379 1 23 58 c13 31 22 57 20 57
-1 0 19 59 46 132 26 73 46 134 43 137 -8 8 -1855 7 -1910 -1z"/>
<path d="M2315 6145 c-150 -40 -256 -103 -366 -217 -97 -100 -130 -162 -224
-428 -48 -135 -88 -249 -90 -255 -1 -5 -6 -21 -12 -35 -6 -14 -20 -52 -31 -85
-11 -33 -62 -175 -112 -315 -50 -140 -93 -262 -95 -270 -2 -8 -20 -60 -40
-115 -20 -55 -51 -143 -70 -195 -18 -52 -40 -115 -49 -139 -9 -24 -14 -46 -12
-49 4 -3 605 -5 707 -2 9 0 19 10 22 23 3 12 35 105 72 207 36 102 76 212 87
245 12 33 25 71 31 85 5 14 29 80 53 147 23 67 47 130 53 140 9 17 35 18 363
18 l352 0 34 95 c19 52 49 137 68 189 19 52 34 97 34 101 0 3 -160 6 -355 6
-377 -1 -370 -2 -344 45 6 11 12 28 14 37 21 90 76 198 128 252 62 64 81 78
156 112 l66 30 637 2 c350 0 640 5 645 9 4 5 8 12 9 15 0 4 3 14 7 22 12 31
48 136 52 150 2 8 17 54 34 102 l30 88 -902 -1 c-720 0 -912 -3 -952 -14z"/>
<path d="M4828 6155 c-2 -2 -20 -6 -38 -9 -163 -22 -385 -174 -487 -333 -9
-15 -20 -30 -24 -33 -3 -3 -14 -27 -24 -55 -9 -27 -20 -57 -23 -65 -3 -8 -6
-19 -8 -25 -1 -5 -8 -23 -15 -40 -6 -16 -13 -34 -15 -40 -3 -11 -34 -99 -114
-325 -284 -800 -272 -762 -272 -849 -1 -84 3 -109 25 -163 33 -80 126 -151
226 -173 23 -5 1518 -10 1787 -5 l31 0 58 168 c31 92 60 179 65 193 l8 26 -77
2 c-42 1 -83 2 -91 2 -8 0 -52 -1 -98 -3 -45 -2 -82 0 -82 4 0 3 -8 4 -17 2
-31 -7 -143 -9 -143 -2 0 3 -8 4 -17 2 -31 -7 -143 -9 -143 -2 0 3 -8 4 -17 2
-29 -7 -143 -10 -143 -3 0 3 -25 2 -55 -1 -30 -3 -55 -2 -55 3 0 4 -4 5 -10 2
-13 -8 -155 -9 -168 -1 -5 3 -20 2 -32 -2 -12 -5 -50 -5 -83 0 -147 20 -205
131 -150 285 14 37 26 73 27 78 7 31 30 91 38 100 5 6 142 10 363 10 194 0
355 2 357 5 3 3 9 21 15 40 12 39 60 177 70 200 3 8 7 17 8 20 0 3 9 30 20 60
10 30 16 57 14 60 -2 3 -155 6 -339 7 -433 1 -386 -2 -366 28 9 14 14 30 11
35 -3 6 -2 10 3 10 6 0 13 12 17 28 6 27 19 58 55 137 38 86 147 180 253 220
53 20 2 19 875 14 249 -1 436 2 441 7 9 10 83 215 108 299 8 28 17 58 20 68 5
16 -40 17 -889 17 -492 0 -897 -2 -900 -5z"/>
<path d="M1551 5714 c-76 -34 -181 -165 -347 -434 -66 -106 -60 -97 -113 -163
-62 -77 -70 -81 -127 -52 -46 24 -79 48 -149 112 -148 137 -256 190 -382 191
-65 0 -203 -28 -228 -47 -14 -11 -171 -61 -190 -61 -14 0 -16 -16 -14 -117 1
-65 3 -121 5 -124 10 -17 274 53 311 83 7 6 13 8 13 5 0 -3 20 1 44 8 24 8 52
12 63 10 10 -2 25 -4 33 -4 17 -1 100 -62 181 -133 46 -40 71 -60 144 -115 6
-5 36 -21 67 -37 76 -37 165 -45 239 -21 63 21 65 22 144 100 109 107 118 126
256 525 17 47 33 92 36 100 3 8 7 18 7 22 1 3 4 10 9 14 4 4 7 18 7 30 0 13 5
26 10 29 6 3 10 14 10 23 0 9 7 29 14 45 17 31 9 33 -43 11z"/>
<path d="M2771 5575 c-37 -12 -116 -74 -106 -83 8 -8 133 -9 146 -2 5 4 12 20
15 36 2 16 6 34 9 41 6 17 -26 21 -64 8z"/>
<path d="M3206 5583 c-3 -4 1 -47 6 -75 5 -22 17 -26 76 -23 31 2 60 1 64 -1
6 -4 -8 -56 -29 -104 -3 -8 -7 -20 -9 -27 -1 -6 -16 -49 -34 -94 -33 -86 -33
-88 -14 -234 2 -22 7 -62 9 -90 2 -27 6 -68 9 -90 7 -56 15 -128 22 -205 3
-36 7 -76 10 -90 2 -14 6 -54 9 -90 4 -36 8 -81 11 -100 6 -46 12 -103 19
-170 3 -30 8 -73 10 -95 2 -22 7 -65 9 -95 3 -30 8 -66 11 -80 2 -14 7 -52 10
-85 3 -33 8 -73 10 -90 2 -16 7 -55 10 -86 3 -31 7 -65 9 -76 2 -10 7 -49 10
-85 4 -37 8 -75 10 -85 2 -10 9 -61 16 -113 7 -52 14 -102 15 -112 2 -9 6 -38
10 -65 4 -26 9 -61 12 -78 2 -16 6 -43 9 -60 2 -16 6 -41 9 -55 3 -14 8 -41
10 -60 9 -64 42 -214 64 -290 37 -121 82 -186 147 -206 103 -33 186 34 232
186 13 41 31 130 47 230 4 25 9 54 11 64 2 11 6 42 9 70 3 28 8 62 10 76 8 50
22 171 30 250 1 14 6 54 10 90 9 78 10 92 20 195 4 44 9 94 11 110 1 17 6 66
10 110 3 44 8 83 10 86 2 3 -25 9 -59 12 -34 3 -89 15 -122 26 -33 11 -63 17
-68 12 -4 -4 -9 -36 -12 -72 -3 -35 -7 -84 -10 -109 -6 -60 -17 -168 -20 -205
-7 -73 -19 -187 -29 -270 -3 -27 -8 -74 -11 -104 -2 -29 -7 -67 -10 -85 -3
-17 -7 -48 -9 -70 -5 -44 -16 -60 -17 -25 0 13 -3 33 -5 44 -3 11 -7 36 -9 55
-5 39 -10 69 -20 132 -4 24 -8 54 -10 68 -2 14 -6 43 -9 65 -6 39 -7 51 -21
170 -6 55 -9 74 -20 145 -2 14 -6 54 -10 90 -3 36 -8 76 -10 90 -3 25 -15 134
-20 180 -7 69 -17 149 -22 185 -2 22 -7 60 -8 85 -4 44 -8 80 -20 185 -4 28
-8 64 -10 80 -1 17 -6 59 -10 95 -3 36 -8 83 -10 105 -2 22 -6 58 -9 80 -4 35
-8 72 -21 190 -2 17 -6 63 -10 103 -3 40 -8 81 -10 92 -2 10 -7 50 -10 87 -4
37 -8 79 -11 93 -5 32 -18 158 -18 188 -1 12 -3 23 -6 23 -13 3 -251 4 -254 2z"/>
<path d="M5463 5582 c-23 -2 -33 -9 -34 -20 0 -9 -3 -29 -5 -44 -3 -18 0 -28
8 -29 75 -5 241 -2 244 3 3 4 6 26 8 48 l3 40 -41 1 c-23 0 -66 1 -96 2 -30 1
-70 1 -87 -1z"/>
<path d="M6084 5580 c-24 -4 -30 -9 -28 -25 3 -18 8 -73 19 -210 2 -22 6 -71
10 -110 3 -38 8 -92 10 -120 3 -27 7 -75 10 -105 2 -30 7 -82 10 -115 3 -33 8
-82 10 -110 3 -27 7 -74 9 -103 2 -29 7 -56 10 -59 3 -4 35 -5 72 -4 60 2 64
1 55 -16 -8 -15 -63 -165 -67 -183 0 -3 -3 -12 -7 -20 -21 -55 -28 -97 -23
-143 3 -29 8 -79 11 -112 3 -33 8 -85 12 -115 3 -30 7 -68 8 -85 3 -33 17
-165 31 -280 3 -22 7 -56 9 -75 9 -83 15 -137 20 -165 7 -41 16 -113 20 -155
2 -19 4 -35 5 -35 1 0 3 -16 6 -35 2 -19 9 -61 15 -92 5 -32 12 -70 15 -85 2
-16 10 -50 16 -78 7 -27 13 -52 13 -55 9 -53 57 -152 90 -186 65 -67 190 -51
247 32 42 60 94 220 122 374 2 14 5 25 6 25 1 0 3 11 6 25 12 75 25 148 29
170 5 26 16 91 21 125 1 11 3 20 4 20 1 0 3 16 6 35 2 19 6 49 9 65 2 17 7 57
11 90 3 33 7 62 9 65 2 3 6 31 10 61 l6 56 -129 -1 c-80 0 -129 -4 -130 -11
-4 -47 -16 -137 -27 -195 -2 -14 -7 -45 -10 -70 -8 -58 -12 -81 -36 -220 -11
-63 -23 -130 -26 -148 -5 -31 -15 -36 -19 -9 -2 17 -15 117 -20 152 -2 17 -6
48 -9 70 -4 22 -8 54 -10 71 -13 108 -16 133 -20 169 -3 22 -7 60 -10 85 -2
25 -6 61 -9 80 -3 19 -8 64 -11 100 -3 36 -7 76 -10 88 -2 13 -7 60 -10 106
-3 45 -7 93 -10 105 -2 13 -7 55 -10 94 -3 40 -7 90 -10 112 -3 22 -7 72 -11
110 -3 39 -7 88 -9 110 -2 22 -7 69 -10 105 -3 36 -7 85 -10 110 -2 25 -7 75
-10 110 -2 36 -7 85 -9 110 -3 25 -7 79 -11 120 -3 41 -8 91 -10 110 -5 42
-17 182 -20 228 -1 17 -4 35 -7 38 -8 7 -184 10 -224 4z"/>
<path d="M6933 5582 c-27 -4 -35 -28 -48 -152 -3 -30 -8 -62 -10 -70 -2 -8 -7
-40 -10 -70 -3 -30 -8 -62 -10 -70 -2 -8 -7 -40 -10 -70 -3 -30 -8 -73 -11
-95 -14 -84 -27 -193 -28 -227 -1 -16 -5 -28 -9 -28 -5 0 -6 -4 -3 -9 3 -4 1
-35 -4 -67 -9 -59 -15 -110 -25 -194 -3 -25 -7 -61 -10 -80 -2 -19 -7 -55 -10
-80 -4 -25 -8 -56 -10 -70 -2 -14 -7 -52 -11 -85 -3 -33 -8 -67 -9 -76 -2 -9
-6 -40 -10 -70 -4 -30 -9 -57 -12 -61 -2 -5 0 -8 5 -8 5 0 12 10 15 23 2 12
19 60 36 107 18 47 41 112 52 145 23 67 67 189 79 220 7 17 41 119 45 135 1 3
5 12 8 20 13 32 30 75 33 85 1 6 31 93 67 195 65 184 75 224 83 310 2 25 6 56
9 70 3 14 7 43 10 65 3 22 7 51 10 65 3 14 7 45 10 69 3 23 8 47 11 52 3 5 -1
12 -8 14 -16 7 -192 12 -225 7z"/>
<path d="M8400 5575 c-7 -9 -134 -355 -145 -395 -3 -13 -151 -434 -191 -545
-8 -22 -24 -67 -35 -100 -11 -33 -23 -67 -26 -75 -3 -8 -7 -19 -9 -25 -1 -5
-21 -63 -44 -128 -23 -65 -40 -121 -37 -123 10 -11 84 17 115 42 68 57 139
185 203 364 12 36 27 71 32 78 5 6 7 12 4 12 -4 0 1 19 9 43 9 23 17 49 19 57
2 8 16 49 30 90 15 41 28 82 30 90 8 28 92 255 115 310 33 76 73 140 87 140
17 0 78 -65 131 -140 26 -36 49 -67 52 -70 3 -3 21 -30 40 -60 19 -30 37 -57
40 -60 3 -3 24 -30 46 -60 165 -223 322 -277 518 -178 63 31 92 51 201 139 39
31 96 74 128 96 82 57 123 57 297 -2 127 -44 203 -61 246 -56 7 1 12 41 13
120 l1 119 -27 5 c-63 12 -87 19 -114 33 -16 8 -29 12 -29 10 0 -3 -20 3 -45
14 -25 11 -45 17 -45 15 0 -2 -19 3 -42 11 -56 20 -160 25 -223 12 -56 -12
-175 -66 -175 -79 0 -5 -5 -9 -10 -9 -6 0 -60 -39 -121 -87 -60 -49 -124 -96
-141 -105 -17 -10 -36 -22 -42 -28 -5 -5 -23 -10 -38 -10 -37 0 -98 56 -169
157 -31 43 -88 124 -127 180 -39 55 -93 124 -119 153 l-48 51 -173 2 c-106 1
-177 -2 -182 -8z"/>
<path d="M5625 4948 c-2 -7 -22 -62 -43 -123 l-39 -110 -89 0 -89 0 -5 -35
c-10 -66 -16 -63 119 -62 68 1 125 3 127 5 6 5 11 58 19 182 3 55 8 112 11
128 4 27 -3 37 -11 15z"/>
<path d="M2414 4709 c-3 -5 -16 -53 -30 -106 -14 -54 -31 -111 -39 -128 l-14
-30 -17 40 c-16 40 -17 40 -26 15 -5 -14 -10 -29 -11 -35 -1 -5 -4 -12 -7 -15
-7 -7 -80 -225 -80 -238 0 -6 21 -25 47 -42 38 -26 56 -31 100 -31 30 0 60 4
67 10 7 6 16 8 19 5 8 -8 107 91 107 107 0 7 6 20 14 28 12 13 63 155 72 196
1 6 12 46 24 90 12 44 24 94 27 112 l4 32 -125 -1 c-70 0 -129 -4 -132 -9z"/>
<path d="M4821 4701 c-8 -16 -22 -65 -21 -77 0 -6 27 -7 146 -5 l36 1 -5 48
c-3 26 -6 47 -6 47 -1 1 -33 1 -71 2 -56 1 -72 -3 -79 -16z"/>
<path d="M4785 3798 c2 -29 7 -87 10 -128 3 -41 7 -102 10 -135 3 -33 7 -87
10 -120 2 -33 6 -80 9 -105 4 -25 8 -79 11 -120 3 -41 7 -95 10 -120 2 -25 7
-79 10 -120 3 -41 8 -88 11 -105 2 -16 6 -57 9 -90 3 -33 8 -80 10 -105 3 -25
7 -72 10 -105 2 -33 5 -60 6 -60 1 0 3 -9 4 -20 7 -54 17 -130 20 -144 1 -9 6
-43 11 -76 4 -33 8 -62 9 -65 0 -3 4 -27 9 -55 34 -223 98 -325 201 -325 110
0 170 100 215 357 6 35 13 75 16 90 3 16 7 42 9 58 1 17 5 50 9 75 4 25 9 61
11 80 2 19 8 60 12 90 4 30 7 72 7 92 1 21 3 38 6 38 3 0 5 12 6 28 1 15 4 56
8 92 4 36 9 85 11 110 3 25 7 69 10 98 3 28 7 78 10 110 3 31 7 71 10 88 2 17
7 71 10 120 4 49 8 105 11 124 2 19 6 64 9 100 11 125 14 169 20 234 l6 66
-130 0 -131 0 -1 -27 c0 -28 -1 -44 -14 -183 -3 -41 -8 -97 -10 -125 -7 -91
-16 -190 -19 -220 -2 -16 -7 -64 -10 -105 -9 -107 -15 -168 -23 -225 -3 -27
-7 -66 -8 -85 -6 -77 -17 -185 -20 -190 -2 -3 -6 -41 -10 -85 -8 -94 -19 -114
-23 -45 -2 27 -5 59 -8 72 -2 13 -7 50 -9 83 -5 58 -11 123 -19 195 -2 19 -7
71 -11 115 -4 44 -8 96 -10 115 -2 19 -6 71 -10 115 -3 44 -8 96 -10 115 -2
19 -6 73 -9 120 -7 88 -11 138 -22 250 -3 36 -5 75 -5 88 1 22 -1 22 -129 22
l-130 0 5 -52z"/>
</g>
</svg>
